<svg width="1366" height="390" viewBox="0 0 1366 390" fill="none" xmlns="http://www.w3.org/2000/svg">
<path d="M1082.67 384.04L762.499 385.114L896.675 274.432L1082.67 384.04Z" fill="#270048"/>
<path d="M763.371 383.682L896.674 274.79L989.323 328.519" stroke="#00F4FB" stroke-width="1.0583" stroke-miterlimit="10" stroke-linecap="round" stroke-linejoin="round"/>
<path d="M991.068 332.818L898.07 283.208L763.371 383.682" stroke="#07E1FB" stroke-width="1.0268" stroke-miterlimit="10" stroke-linecap="round" stroke-linejoin="round"/>
<path d="M992.638 337.116L899.466 291.804L763.371 383.861" stroke="#0ECEFC" stroke-width="0.9952" stroke-miterlimit="10" stroke-linecap="round" stroke-linejoin="round"/>
<path d="M994.209 341.594L900.862 300.222L763.196 383.861" stroke="#15BCFC" stroke-width="0.9636" stroke-miterlimit="10" stroke-linecap="round" stroke-linejoin="round"/>
<path d="M995.78 345.892L902.432 308.639L763.196 384.04" stroke="#1CA9FC" stroke-width="0.932" stroke-miterlimit="10" stroke-linecap="round" stroke-linejoin="round"/>
<path d="M997.524 350.19L903.828 317.236L763.196 384.219" stroke="#2396FD" stroke-width="0.9004" stroke-miterlimit="10" stroke-linecap="round" stroke-linejoin="round"/>
<path d="M999.094 354.489L905.223 325.654L763.021 384.219" stroke="#2A83FD" stroke-width="0.8689" stroke-miterlimit="10" stroke-linecap="round" stroke-linejoin="round"/>
<path d="M1000.66 358.966L906.619 334.071L763.021 384.398" stroke="#3171FD" stroke-width="0.8373" stroke-miterlimit="10" stroke-linecap="round" stroke-linejoin="round"/>
<path d="M1002.24 363.264L908.016 342.668L762.848 384.398" stroke="#385EFD" stroke-width="0.8057" stroke-miterlimit="10" stroke-linecap="round" stroke-linejoin="round"/>
<path d="M1003.98 367.563L909.412 351.086L762.848 384.577" stroke="#3F4BFE" stroke-width="0.7741" stroke-miterlimit="10" stroke-linecap="round" stroke-linejoin="round"/>
<path d="M1005.55 371.861L910.808 359.503L762.848 384.756" stroke="#4638FE" stroke-width="0.7426" stroke-miterlimit="10" stroke-linecap="round" stroke-linejoin="round"/>
<path d="M1007.12 376.339L912.377 368.1L762.672 384.756" stroke="#4D26FE" stroke-width="0.711" stroke-miterlimit="10" stroke-linecap="round" stroke-linejoin="round"/>
<path d="M1008.69 380.637L913.773 376.518L762.672 384.935" stroke="#5413FF" stroke-width="0.6794" stroke-miterlimit="10" stroke-linecap="round" stroke-linejoin="round"/>
<path d="M1010.44 384.935H762.672" stroke="#5B00FF" stroke-width="0.6478" stroke-miterlimit="10" stroke-linecap="round" stroke-linejoin="round"/>
<path d="M743.306 387.622L803.153 366.309L868.758 328.34L907.667 350.369L1046.9 237L1094.54 276.223L1323.63 1.48596L1564.59 388.517L744.004 388.875L743.306 387.622Z" fill="#270048"/>
<path d="M1563.37 383.323L1323.63 1.48596L1094.71 275.685L1046.73 236.821L907.667 350.369L868.583 328.34L802.106 366.309L743.306 387.622" stroke="#00F4FB" stroke-width="1.4111" stroke-miterlimit="10" stroke-linecap="round" stroke-linejoin="round"/>
<path d="M1563.54 383.682L1319.09 31.2162L1089.65 284.282L1042.19 248.462L904.526 353.235L866.141 332.997L800.885 368.1L743.306 387.622" stroke="#07E1FB" stroke-width="1.384" stroke-miterlimit="10" stroke-linecap="round" stroke-linejoin="round"/>
<path d="M1563.72 384.04L1314.73 60.9465L1084.59 293.058L1037.66 260.104L901.386 356.279L863.872 337.653L799.663 369.712L743.306 387.801" stroke="#0ECEFC" stroke-width="1.3568" stroke-miterlimit="10" stroke-linecap="round" stroke-linejoin="round"/>
<path d="M1563.89 384.398L1310.37 90.6769L1079.53 301.655L1032.94 271.745L898.245 359.145L861.43 342.31L798.442 371.503L743.306 387.801" stroke="#15BCFC" stroke-width="1.3297" stroke-miterlimit="10" stroke-linecap="round" stroke-linejoin="round"/>
<path d="M1563.89 384.756L1305.83 120.407L1074.29 310.43L1028.41 283.387L895.278 362.011L858.986 346.787L797.045 373.115L743.479 387.801" stroke="#1CA9FC" stroke-width="1.3026" stroke-miterlimit="10" stroke-linecap="round" stroke-linejoin="round"/>
<path d="M1564.06 385.114L1301.47 150.137L1069.23 319.027L1023.87 295.207L892.137 365.055L856.543 351.444L795.823 374.906L743.479 387.98" stroke="#2396FD" stroke-width="1.2754" stroke-miterlimit="10" stroke-linecap="round" stroke-linejoin="round"/>
<path d="M1564.24 385.473L1297.11 180.047L1064.18 327.624L1019.16 306.848L888.996 367.921L854.1 356.1L794.602 376.518L743.479 387.98" stroke="#2A83FD" stroke-width="1.2483" stroke-miterlimit="10" stroke-linecap="round" stroke-linejoin="round"/>
<path d="M1564.24 386.01L1292.57 209.777L1059.12 336.4L1014.62 318.49L885.856 370.786L851.657 360.757L793.381 378.309L743.479 387.98" stroke="#3171FD" stroke-width="1.2212" stroke-miterlimit="10" stroke-linecap="round" stroke-linejoin="round"/>
<path d="M1564.41 386.368L1288.21 239.507L1053.88 344.996L1010.09 330.131L882.715 373.831L849.389 365.413L792.159 379.92L743.479 388.159" stroke="#385EFD" stroke-width="1.194" stroke-miterlimit="10" stroke-linecap="round" stroke-linejoin="round"/>
<path d="M1564.59 386.726L1283.85 269.238L1048.82 353.772L1005.55 341.773L879.749 376.697L846.946 369.891L790.763 381.711L743.479 388.159" stroke="#3F4BFE" stroke-width="1.1669" stroke-miterlimit="10" stroke-linecap="round" stroke-linejoin="round"/>
<path d="M1564.59 387.084L1279.31 298.968L1043.76 362.369L1000.84 353.414L876.609 379.562L844.505 374.548L789.543 383.323L743.655 388.338" stroke="#4638FE" stroke-width="1.1397" stroke-miterlimit="10" stroke-linecap="round" stroke-linejoin="round"/>
<path d="M1564.76 387.443L1274.95 328.878L1038.7 370.966L996.303 365.055L873.469 382.607L842.062 379.204L788.322 385.114L743.655 388.338" stroke="#4D26FE" stroke-width="1.1126" stroke-miterlimit="10" stroke-linecap="round" stroke-linejoin="round"/>
<path d="M1564.94 387.801L1270.59 358.608L1033.47 379.741L991.767 376.697L870.328 385.472L839.619 383.86L787.101 386.726L743.655 388.338" stroke="#5413FF" stroke-width="1.0855" stroke-miterlimit="10" stroke-linecap="round" stroke-linejoin="round"/>
<path d="M1564.94 388.338L743.655 388.517" stroke="#5B00FF" stroke-width="1.0583" stroke-miterlimit="10" stroke-linecap="round" stroke-linejoin="round"/>
<path d="M282.328 384.04L602.5 385.114L468.324 274.432L282.328 384.04Z" fill="#270048"/>
<path d="M601.628 383.681L468.324 274.79L375.675 328.519" stroke="#00F4FB" stroke-width="1.0583" stroke-miterlimit="10" stroke-linecap="round" stroke-linejoin="round"/>
<path d="M373.93 332.817L466.928 283.207L601.628 383.681" stroke="#07E1FB" stroke-width="1.0268" stroke-miterlimit="10" stroke-linecap="round" stroke-linejoin="round"/>
<path d="M372.36 337.116L465.532 291.804L601.628 383.86" stroke="#0ECEFC" stroke-width="0.9952" stroke-miterlimit="10" stroke-linecap="round" stroke-linejoin="round"/>
<path d="M370.789 341.593L463.962 300.222L601.802 383.86" stroke="#15BCFC" stroke-width="0.9636" stroke-miterlimit="10" stroke-linecap="round" stroke-linejoin="round"/>
<path d="M369.219 345.892L462.566 308.639L601.802 384.04" stroke="#1CA9FC" stroke-width="0.932" stroke-miterlimit="10" stroke-linecap="round" stroke-linejoin="round"/>
<path d="M367.474 350.19L461.171 317.236L601.802 384.219" stroke="#2396FD" stroke-width="0.9004" stroke-miterlimit="10" stroke-linecap="round" stroke-linejoin="round"/>
<path d="M365.904 354.488L459.775 325.653L601.977 384.219" stroke="#2A83FD" stroke-width="0.8689" stroke-miterlimit="10" stroke-linecap="round" stroke-linejoin="round"/>
<path d="M364.334 358.966L458.379 334.071L601.977 384.398" stroke="#3171FD" stroke-width="0.8373" stroke-miterlimit="10" stroke-linecap="round" stroke-linejoin="round"/>
<path d="M362.763 363.264L456.983 342.668L601.976 384.398" stroke="#385EFD" stroke-width="0.8057" stroke-miterlimit="10" stroke-linecap="round" stroke-linejoin="round"/>
<path d="M361.018 367.563L455.587 351.085L602.151 384.577" stroke="#3F4BFE" stroke-width="0.7741" stroke-miterlimit="10" stroke-linecap="round" stroke-linejoin="round"/>
<path d="M359.448 371.861L454.017 359.503L602.151 384.756" stroke="#4638FE" stroke-width="0.7426" stroke-miterlimit="10" stroke-linecap="round" stroke-linejoin="round"/>
<path d="M357.878 376.338L452.621 368.1L602.151 384.756" stroke="#4D26FE" stroke-width="0.711" stroke-miterlimit="10" stroke-linecap="round" stroke-linejoin="round"/>
<path d="M356.307 380.637L451.225 376.517L602.326 384.935" stroke="#5413FF" stroke-width="0.6794" stroke-miterlimit="10" stroke-linecap="round" stroke-linejoin="round"/>
<path d="M354.563 384.936H602.326" stroke="#5B00FF" stroke-width="0.6478" stroke-miterlimit="10" stroke-linecap="round" stroke-linejoin="round"/>
<path d="M621.691 387.622L561.844 366.309L496.065 328.34L457.33 350.369L318.094 237L270.461 276.223L41.3675 1.4859L-199.591 388.517L620.993 388.875L621.691 387.622Z" fill="#270048"/>
<path d="M-198.542 383.323L41.3694 1.4859L270.288 275.685L318.271 236.821L457.332 350.369L496.416 328.34L562.893 366.309L621.693 387.622" stroke="#00F4FB" stroke-width="1.4111" stroke-miterlimit="10" stroke-linecap="round" stroke-linejoin="round"/>
<path d="M-198.542 383.681L45.7314 31.2162L275.348 284.282L322.807 248.462L460.473 353.235L498.684 332.997L564.114 368.1L621.693 387.622" stroke="#07E1FB" stroke-width="1.384" stroke-miterlimit="10" stroke-linecap="round" stroke-linejoin="round"/>
<path d="M-198.716 384.04L50.2678 60.9465L280.408 293.058L327.344 260.104L463.613 356.279L501.127 337.653L565.336 369.712L621.693 387.801" stroke="#0ECEFC" stroke-width="1.3568" stroke-miterlimit="10" stroke-linecap="round" stroke-linejoin="round"/>
<path d="M-198.891 384.398L54.6301 90.6768L285.468 301.654L332.055 271.745L466.58 359.145L503.57 342.31L566.557 371.503L621.519 387.801" stroke="#15BCFC" stroke-width="1.3297" stroke-miterlimit="10" stroke-linecap="round" stroke-linejoin="round"/>
<path d="M-198.891 384.756L58.9921 120.407L290.703 310.43L336.591 283.386L469.72 362.011L506.012 346.787L567.778 373.115L621.519 387.801" stroke="#1CA9FC" stroke-width="1.3026" stroke-miterlimit="10" stroke-linecap="round" stroke-linejoin="round"/>
<path d="M-199.066 385.114L63.5276 150.137L295.762 319.027L341.127 295.207L472.86 365.055L508.454 351.444L569.173 374.906L621.518 387.98" stroke="#2396FD" stroke-width="1.2754" stroke-miterlimit="10" stroke-linecap="round" stroke-linejoin="round"/>
<path d="M-199.241 385.472L67.8897 180.047L300.822 327.624L345.663 306.848L476.001 367.921L510.897 356.1L570.395 376.517L621.518 387.98" stroke="#2A83FD" stroke-width="1.2483" stroke-miterlimit="10" stroke-linecap="round" stroke-linejoin="round"/>
<path d="M-199.241 386.01L72.2517 209.777L305.882 336.4L350.374 318.49L479.141 370.786L513.165 360.757L571.616 378.309L621.518 387.98" stroke="#3171FD" stroke-width="1.2212" stroke-miterlimit="10" stroke-linecap="round" stroke-linejoin="round"/>
<path d="M-199.415 386.368L76.7885 239.507L311.116 344.996L354.911 330.131L482.282 373.831L515.608 365.413L572.838 379.92L621.518 388.159" stroke="#385EFD" stroke-width="1.194" stroke-miterlimit="10" stroke-linecap="round" stroke-linejoin="round"/>
<path d="M-199.589 386.726L81.1506 269.238L316.176 353.772L359.448 341.772L485.248 376.697L518.051 369.891L574.059 381.711L621.344 388.159" stroke="#3F4BFE" stroke-width="1.1669" stroke-miterlimit="10" stroke-linecap="round" stroke-linejoin="round"/>
<path d="M-199.589 387.084L85.5126 298.968L321.236 362.369L363.984 353.414L488.389 379.562L520.494 374.547L575.455 383.323L621.344 388.338" stroke="#4638FE" stroke-width="1.1397" stroke-miterlimit="10" stroke-linecap="round" stroke-linejoin="round"/>
<path d="M-199.765 387.442L90.048 328.877L326.295 370.965L368.694 365.055L491.529 382.607L522.935 379.204L576.675 385.114L621.342 388.338" stroke="#4D26FE" stroke-width="1.1126" stroke-miterlimit="10" stroke-linecap="round" stroke-linejoin="round"/>
<path d="M-199.938 387.801L94.4116 358.608L331.357 379.741L373.232 376.697L494.671 385.472L525.38 383.86L577.898 386.726L621.344 388.338" stroke="#5413FF" stroke-width="1.0855" stroke-miterlimit="10" stroke-linecap="round" stroke-linejoin="round"/>
<path d="M-199.938 388.338L621.344 388.517" stroke="#5B00FF" stroke-width="1.0583" stroke-miterlimit="10" stroke-linecap="round" stroke-linejoin="round"/>
</svg>
