<svg width="1366" height="826" viewBox="0 0 1366 826" fill="none" xmlns="http://www.w3.org/2000/svg">
<path d="M1082.67 384.04L762.499 385.114L896.675 274.432L1082.67 384.04Z" fill="#270048"/>
<path d="M763.371 383.682L896.674 274.79L989.323 328.519" stroke="#00F4FB" stroke-width="1.0583" stroke-miterlimit="10" stroke-linecap="round" stroke-linejoin="round"/>
<path d="M991.068 332.818L898.07 283.208L763.371 383.682" stroke="#07E1FB" stroke-width="1.0268" stroke-miterlimit="10" stroke-linecap="round" stroke-linejoin="round"/>
<path d="M992.638 337.116L899.466 291.804L763.371 383.861" stroke="#0ECEFC" stroke-width="0.9952" stroke-miterlimit="10" stroke-linecap="round" stroke-linejoin="round"/>
<path d="M994.209 341.594L900.862 300.222L763.196 383.861" stroke="#15BCFC" stroke-width="0.9636" stroke-miterlimit="10" stroke-linecap="round" stroke-linejoin="round"/>
<path d="M995.78 345.892L902.432 308.639L763.196 384.04" stroke="#1CA9FC" stroke-width="0.932" stroke-miterlimit="10" stroke-linecap="round" stroke-linejoin="round"/>
<path d="M997.524 350.19L903.828 317.236L763.196 384.219" stroke="#2396FD" stroke-width="0.9004" stroke-miterlimit="10" stroke-linecap="round" stroke-linejoin="round"/>
<path d="M999.094 354.489L905.223 325.654L763.021 384.219" stroke="#2A83FD" stroke-width="0.8689" stroke-miterlimit="10" stroke-linecap="round" stroke-linejoin="round"/>
<path d="M1000.66 358.966L906.619 334.071L763.021 384.398" stroke="#3171FD" stroke-width="0.8373" stroke-miterlimit="10" stroke-linecap="round" stroke-linejoin="round"/>
<path d="M1002.24 363.264L908.016 342.668L762.848 384.398" stroke="#385EFD" stroke-width="0.8057" stroke-miterlimit="10" stroke-linecap="round" stroke-linejoin="round"/>
<path d="M1003.98 367.563L909.412 351.086L762.848 384.577" stroke="#3F4BFE" stroke-width="0.7741" stroke-miterlimit="10" stroke-linecap="round" stroke-linejoin="round"/>
<path d="M1005.55 371.861L910.808 359.503L762.848 384.756" stroke="#4638FE" stroke-width="0.7426" stroke-miterlimit="10" stroke-linecap="round" stroke-linejoin="round"/>
<path d="M1007.12 376.339L912.377 368.1L762.672 384.756" stroke="#4D26FE" stroke-width="0.711" stroke-miterlimit="10" stroke-linecap="round" stroke-linejoin="round"/>
<path d="M1008.69 380.637L913.773 376.518L762.672 384.935" stroke="#5413FF" stroke-width="0.6794" stroke-miterlimit="10" stroke-linecap="round" stroke-linejoin="round"/>
<path d="M1010.44 384.935H762.672" stroke="#5B00FF" stroke-width="0.6478" stroke-miterlimit="10" stroke-linecap="round" stroke-linejoin="round"/>
<path d="M743.306 387.622L803.153 366.309L868.758 328.34L907.667 350.369L1046.9 237L1094.54 276.223L1323.63 1.48596L1564.59 388.517L744.004 388.875L743.306 387.622Z" fill="#270048"/>
<path d="M1563.37 383.323L1323.63 1.48596L1094.71 275.685L1046.73 236.821L907.667 350.369L868.583 328.34L802.106 366.309L743.306 387.622" stroke="#00F4FB" stroke-width="1.4111" stroke-miterlimit="10" stroke-linecap="round" stroke-linejoin="round"/>
<path d="M1563.54 383.682L1319.09 31.2162L1089.65 284.282L1042.19 248.462L904.526 353.235L866.141 332.997L800.885 368.1L743.306 387.622" stroke="#07E1FB" stroke-width="1.384" stroke-miterlimit="10" stroke-linecap="round" stroke-linejoin="round"/>
<path d="M1563.72 384.04L1314.73 60.9465L1084.59 293.058L1037.66 260.104L901.386 356.279L863.872 337.653L799.663 369.712L743.306 387.801" stroke="#0ECEFC" stroke-width="1.3568" stroke-miterlimit="10" stroke-linecap="round" stroke-linejoin="round"/>
<path d="M1563.89 384.398L1310.37 90.6769L1079.53 301.655L1032.94 271.745L898.245 359.145L861.43 342.31L798.442 371.503L743.306 387.801" stroke="#15BCFC" stroke-width="1.3297" stroke-miterlimit="10" stroke-linecap="round" stroke-linejoin="round"/>
<path d="M1563.89 384.756L1305.83 120.407L1074.29 310.43L1028.41 283.387L895.278 362.011L858.986 346.787L797.045 373.115L743.479 387.801" stroke="#1CA9FC" stroke-width="1.3026" stroke-miterlimit="10" stroke-linecap="round" stroke-linejoin="round"/>
<path d="M1564.06 385.114L1301.47 150.137L1069.23 319.027L1023.87 295.207L892.137 365.055L856.543 351.444L795.823 374.906L743.479 387.98" stroke="#2396FD" stroke-width="1.2754" stroke-miterlimit="10" stroke-linecap="round" stroke-linejoin="round"/>
<path d="M1564.24 385.473L1297.11 180.047L1064.18 327.624L1019.16 306.848L888.996 367.921L854.1 356.1L794.602 376.518L743.479 387.98" stroke="#2A83FD" stroke-width="1.2483" stroke-miterlimit="10" stroke-linecap="round" stroke-linejoin="round"/>
<path d="M1564.24 386.01L1292.57 209.777L1059.12 336.4L1014.62 318.49L885.856 370.786L851.657 360.757L793.381 378.309L743.479 387.98" stroke="#3171FD" stroke-width="1.2212" stroke-miterlimit="10" stroke-linecap="round" stroke-linejoin="round"/>
<path d="M1564.41 386.368L1288.21 239.507L1053.88 344.996L1010.09 330.131L882.715 373.831L849.389 365.413L792.159 379.92L743.479 388.159" stroke="#385EFD" stroke-width="1.194" stroke-miterlimit="10" stroke-linecap="round" stroke-linejoin="round"/>
<path d="M1564.59 386.726L1283.85 269.238L1048.82 353.772L1005.55 341.773L879.749 376.697L846.946 369.891L790.763 381.711L743.479 388.159" stroke="#3F4BFE" stroke-width="1.1669" stroke-miterlimit="10" stroke-linecap="round" stroke-linejoin="round"/>
<path d="M1564.59 387.084L1279.31 298.968L1043.76 362.369L1000.84 353.414L876.609 379.562L844.505 374.548L789.543 383.323L743.655 388.338" stroke="#4638FE" stroke-width="1.1397" stroke-miterlimit="10" stroke-linecap="round" stroke-linejoin="round"/>
<path d="M1564.76 387.443L1274.95 328.878L1038.7 370.966L996.303 365.055L873.469 382.607L842.062 379.204L788.322 385.114L743.655 388.338" stroke="#4D26FE" stroke-width="1.1126" stroke-miterlimit="10" stroke-linecap="round" stroke-linejoin="round"/>
<path d="M1564.94 387.801L1270.59 358.608L1033.47 379.741L991.767 376.697L870.328 385.472L839.619 383.86L787.101 386.726L743.655 388.338" stroke="#5413FF" stroke-width="1.0855" stroke-miterlimit="10" stroke-linecap="round" stroke-linejoin="round"/>
<path d="M1564.94 388.338L743.655 388.517" stroke="#5B00FF" stroke-width="1.0583" stroke-miterlimit="10" stroke-linecap="round" stroke-linejoin="round"/>
<path d="M282.328 384.04L602.5 385.114L468.324 274.432L282.328 384.04Z" fill="#270048"/>
<path d="M601.628 383.681L468.324 274.79L375.675 328.519" stroke="#00F4FB" stroke-width="1.0583" stroke-miterlimit="10" stroke-linecap="round" stroke-linejoin="round"/>
<path d="M373.93 332.817L466.928 283.207L601.628 383.681" stroke="#07E1FB" stroke-width="1.0268" stroke-miterlimit="10" stroke-linecap="round" stroke-linejoin="round"/>
<path d="M372.36 337.116L465.532 291.804L601.628 383.86" stroke="#0ECEFC" stroke-width="0.9952" stroke-miterlimit="10" stroke-linecap="round" stroke-linejoin="round"/>
<path d="M370.789 341.593L463.962 300.222L601.802 383.86" stroke="#15BCFC" stroke-width="0.9636" stroke-miterlimit="10" stroke-linecap="round" stroke-linejoin="round"/>
<path d="M369.219 345.892L462.566 308.639L601.802 384.04" stroke="#1CA9FC" stroke-width="0.932" stroke-miterlimit="10" stroke-linecap="round" stroke-linejoin="round"/>
<path d="M367.474 350.19L461.171 317.236L601.802 384.219" stroke="#2396FD" stroke-width="0.9004" stroke-miterlimit="10" stroke-linecap="round" stroke-linejoin="round"/>
<path d="M365.904 354.488L459.775 325.653L601.977 384.219" stroke="#2A83FD" stroke-width="0.8689" stroke-miterlimit="10" stroke-linecap="round" stroke-linejoin="round"/>
<path d="M364.334 358.966L458.379 334.071L601.977 384.398" stroke="#3171FD" stroke-width="0.8373" stroke-miterlimit="10" stroke-linecap="round" stroke-linejoin="round"/>
<path d="M362.763 363.264L456.983 342.668L601.976 384.398" stroke="#385EFD" stroke-width="0.8057" stroke-miterlimit="10" stroke-linecap="round" stroke-linejoin="round"/>
<path d="M361.018 367.563L455.587 351.085L602.151 384.577" stroke="#3F4BFE" stroke-width="0.7741" stroke-miterlimit="10" stroke-linecap="round" stroke-linejoin="round"/>
<path d="M359.448 371.861L454.017 359.503L602.151 384.756" stroke="#4638FE" stroke-width="0.7426" stroke-miterlimit="10" stroke-linecap="round" stroke-linejoin="round"/>
<path d="M357.878 376.338L452.621 368.1L602.151 384.756" stroke="#4D26FE" stroke-width="0.711" stroke-miterlimit="10" stroke-linecap="round" stroke-linejoin="round"/>
<path d="M356.307 380.637L451.225 376.517L602.326 384.935" stroke="#5413FF" stroke-width="0.6794" stroke-miterlimit="10" stroke-linecap="round" stroke-linejoin="round"/>
<path d="M354.563 384.936H602.326" stroke="#5B00FF" stroke-width="0.6478" stroke-miterlimit="10" stroke-linecap="round" stroke-linejoin="round"/>
<path d="M621.691 387.622L561.844 366.309L496.065 328.34L457.33 350.369L318.094 237L270.461 276.223L41.3675 1.4859L-199.591 388.517L620.993 388.875L621.691 387.622Z" fill="#270048"/>
<path d="M-198.542 383.323L41.3694 1.4859L270.288 275.685L318.271 236.821L457.332 350.369L496.416 328.34L562.893 366.309L621.693 387.622" stroke="#00F4FB" stroke-width="1.4111" stroke-miterlimit="10" stroke-linecap="round" stroke-linejoin="round"/>
<path d="M-198.542 383.681L45.7314 31.2162L275.348 284.282L322.807 248.462L460.473 353.235L498.684 332.997L564.114 368.1L621.693 387.622" stroke="#07E1FB" stroke-width="1.384" stroke-miterlimit="10" stroke-linecap="round" stroke-linejoin="round"/>
<path d="M-198.716 384.04L50.2678 60.9465L280.408 293.058L327.344 260.104L463.613 356.279L501.127 337.653L565.336 369.712L621.693 387.801" stroke="#0ECEFC" stroke-width="1.3568" stroke-miterlimit="10" stroke-linecap="round" stroke-linejoin="round"/>
<path d="M-198.891 384.398L54.6301 90.6768L285.468 301.654L332.055 271.745L466.58 359.145L503.57 342.31L566.557 371.503L621.519 387.801" stroke="#15BCFC" stroke-width="1.3297" stroke-miterlimit="10" stroke-linecap="round" stroke-linejoin="round"/>
<path d="M-198.891 384.756L58.9921 120.407L290.703 310.43L336.591 283.386L469.72 362.011L506.012 346.787L567.778 373.115L621.519 387.801" stroke="#1CA9FC" stroke-width="1.3026" stroke-miterlimit="10" stroke-linecap="round" stroke-linejoin="round"/>
<path d="M-199.066 385.114L63.5276 150.137L295.762 319.027L341.127 295.207L472.86 365.055L508.454 351.444L569.173 374.906L621.518 387.98" stroke="#2396FD" stroke-width="1.2754" stroke-miterlimit="10" stroke-linecap="round" stroke-linejoin="round"/>
<path d="M-199.241 385.472L67.8897 180.047L300.822 327.624L345.663 306.848L476.001 367.921L510.897 356.1L570.395 376.517L621.518 387.98" stroke="#2A83FD" stroke-width="1.2483" stroke-miterlimit="10" stroke-linecap="round" stroke-linejoin="round"/>
<path d="M-199.241 386.01L72.2517 209.777L305.882 336.4L350.374 318.49L479.141 370.786L513.165 360.757L571.616 378.309L621.518 387.98" stroke="#3171FD" stroke-width="1.2212" stroke-miterlimit="10" stroke-linecap="round" stroke-linejoin="round"/>
<path d="M-199.415 386.368L76.7885 239.507L311.116 344.996L354.911 330.131L482.282 373.831L515.608 365.413L572.838 379.92L621.518 388.159" stroke="#385EFD" stroke-width="1.194" stroke-miterlimit="10" stroke-linecap="round" stroke-linejoin="round"/>
<path d="M-199.589 386.726L81.1506 269.238L316.176 353.772L359.448 341.772L485.248 376.697L518.051 369.891L574.059 381.711L621.344 388.159" stroke="#3F4BFE" stroke-width="1.1669" stroke-miterlimit="10" stroke-linecap="round" stroke-linejoin="round"/>
<path d="M-199.589 387.084L85.5126 298.968L321.236 362.369L363.984 353.414L488.389 379.562L520.494 374.547L575.455 383.323L621.344 388.338" stroke="#4638FE" stroke-width="1.1397" stroke-miterlimit="10" stroke-linecap="round" stroke-linejoin="round"/>
<path d="M-199.765 387.442L90.048 328.877L326.295 370.965L368.694 365.055L491.529 382.607L522.935 379.204L576.675 385.114L621.342 388.338" stroke="#4D26FE" stroke-width="1.1126" stroke-miterlimit="10" stroke-linecap="round" stroke-linejoin="round"/>
<path d="M-199.938 387.801L94.4116 358.608L331.357 379.741L373.232 376.697L494.671 385.472L525.38 383.86L577.898 386.726L621.344 388.338" stroke="#5413FF" stroke-width="1.0855" stroke-miterlimit="10" stroke-linecap="round" stroke-linejoin="round"/>
<path d="M-199.938 388.338L621.344 388.517" stroke="#5B00FF" stroke-width="1.0583" stroke-miterlimit="10" stroke-linecap="round" stroke-linejoin="round"/>
<path d="M588.985 385.286L8.79977 790.951H-417.371V387.001L588.985 385.286Z" fill="#270048"/>
<path d="M586.992 385.572L571.619 396.435H486.783L500.448 388.145L499.025 385.572L481.09 396.435H396.539L411.911 388.145L410.488 385.572L390.276 396.435H306.294L323.375 388.145L321.952 385.286L299.462 396.149H216.049L234.838 387.859L233.7 385L208.647 395.863H126.089L146.302 387.859L145.163 385L117.833 395.863H35.8447L57.7652 387.859L56.6265 385L27.0195 395.863H-54.4L-30.7712 387.859L-31.6253 385L-63.7945 395.863H-145.214L-119.877 387.859L-120.731 385L-155.178 395.863H-235.459L-208.414 387.859L-209.268 385L-245.992 395.863H-325.703L-296.95 387.859L-297.804 385L-337.091 395.863H-415.663L-385.202 387.859L-386.056 385L-427.62 396.149H-429.613V399.866L-427.335 399.294H-347.624L-380.647 408.728H-429.613V411.873H-391.465L-428.474 422.165H-429.613V425.595L-428.189 425.309H-342.5L-381.786 437.03H-429.897V440.175H-392.035L-429.897 451.61V456.47H-342.5L-389.188 471.336H-429.897V474.481H-398.582L-429.897 484.487V487.631L-388.618 474.481H-291.257L-340.507 491.348H-429.897V494.492H-349.332L-405.415 513.646H-429.897V516.791H-414.24L-429.897 522.223V525.367L-404.845 516.791H-297.804L-357.303 538.804H-429.613V541.949H-365.559L-429.613 565.677V570.251H-314.601L-387.764 599.411H-429.897V602.555H-395.451L-429.897 616.278V619.422L-387.195 602.27H-260.796L-339.083 636.575H-429.897V639.72H-346.201L-429.897 676.313V679.743L-338.514 639.72H-203.859L-287.271 678.886H-429.613V682.03H-293.534L-393.458 730.344H-429.613V733.489H-399.721L-429.613 747.783V751.213L-392.889 733.203H-237.451L-366.982 802.958L-365.559 805.531L-230.904 733.203H-74.8972L-189.909 802.958L-188.486 805.531L-69.2036 733.203H87.3724L-12.8362 802.958L-11.1281 805.531L572.188 399.294L588.415 387.859L586.992 385.572ZM390.56 399.294H475.681L460.308 408.728H373.195L390.56 399.294ZM-0.0254517 490.776L38.4068 473.909H138.046L103.03 490.776H-0.0254517ZM97.0516 493.635L57.1959 512.789H-50.9838L-7.14255 493.635H97.0516ZM-24.2235 453.04H-118.454L-82.8683 439.889H8.51505L-24.2235 453.04ZM16.7708 439.889H108.724L78.5472 453.04H-16.2524L16.7708 439.889ZM-23.6541 455.898H71.7148L37.8374 470.764H-60.663L-23.6541 455.898ZM45.2392 470.764L79.1165 455.898H175.055L144.309 470.764H45.2392ZM86.2336 453.04L116.41 439.889H208.932L181.603 453.04H86.2336ZM123.242 436.744L150.003 425.023H239.393L215.195 436.744H123.242ZM115.556 436.744H24.1726L53.495 425.023H142.316L115.556 436.744ZM16.2015 436.744H-74.6125L-43.0127 425.023H45.2392L16.2015 436.744ZM-83.153 436.744H-173.113L-138.951 425.023H-51.2685L-83.153 436.744ZM-91.4089 439.889L-126.994 453.04H-220.655L-182.223 439.889H-91.4089ZM-126.425 455.898H-31.6253L-68.6342 470.764H-166.565L-126.425 455.898ZM-68.3495 473.909H30.7203L-7.71194 490.776H-110.483L-68.3495 473.909ZM-14.5443 493.635L-58.3856 512.789H-165.711L-117.884 493.635H-14.5443ZM-57.8162 515.933H50.9329L5.38351 537.946H-107.92L-57.8162 515.933ZM-0.879486 540.805L-53.2613 565.963H-172.544L-114.753 540.805H-0.879486ZM-52.4072 569.107H68.2986L13.924 598.267H-112.76L-52.4072 569.107ZM-46.1442 565.963L6.23761 540.805H120.68L73.7075 565.963H-46.1442ZM12.5006 537.946L58.0499 515.933H167.368L126.659 537.946H12.5006ZM64.313 512.789L104.169 493.635H208.647L173.062 512.789H64.313ZM110.147 490.776L145.163 473.909H245.372L214.057 490.776H110.147ZM151.426 470.764L182.172 455.898H278.68L251.065 470.764H151.426ZM188.435 453.04L215.765 439.889H308.856L284.373 453.04H188.435ZM222.028 436.744L246.226 425.023H336.186L314.55 436.744H222.028ZM252.489 421.879L274.125 411.587H361.238L341.879 421.879H252.489ZM245.656 421.879H156.835L180.749 411.587H267.292L245.656 421.879ZM149.433 421.879H61.1815L87.0877 411.587H173.062L149.433 421.879ZM52.9257 421.879H-34.7569L-6.57315 411.587H78.8319L52.9257 421.879ZM-43.2974 421.879H-130.126L-99.6647 411.587H-14.829L-43.2974 421.879ZM-139.52 421.879H-225.779L-193.041 411.587H-108.775L-139.52 421.879ZM-236.028 421.879H-321.718L-286.702 411.587H-203.289L-236.028 421.879ZM-235.459 425.023H-148.346L-182.508 436.744H-271.898L-235.459 425.023ZM-191.333 439.889L-229.765 453.04H-322.572L-281.293 439.889H-191.333ZM-229.48 455.898H-135.25L-175.39 470.764H-272.752L-229.48 455.898ZM-175.106 473.909H-76.6053L-118.738 490.776H-220.94L-175.106 473.909ZM-126.14 493.635L-173.967 512.789H-280.723L-228.626 493.635H-126.14ZM-173.398 515.933H-65.218L-115.322 537.946H-228.057L-173.398 515.933ZM-122.439 540.805L-180.23 565.963H-298.943L-235.743 540.805H-122.439ZM-179.376 569.107H-59.2396L-119.877 598.267H-245.992L-179.376 569.107ZM-119.308 601.412H8.23035L-55.5387 635.718H-190.194L-119.308 601.412ZM-54.9693 638.576H80.8246L14.4934 678.886H-130.126L-54.9693 638.576ZM-49.2757 635.718L14.4934 601.412H142.601L86.2336 635.718H-49.2757ZM20.1871 598.267L74.5616 569.107H195.837L147.725 598.267H20.1871ZM80.2553 565.963L127.228 540.805H242.24L200.676 565.963H80.2553ZM132.637 537.946L173.631 515.933H283.519L247.364 537.946H132.637ZM179.325 512.789L214.911 493.635H319.959L288.359 512.789H179.325ZM220.604 490.776L251.919 473.909H352.697L324.798 490.776H220.604ZM257.328 470.764L284.943 455.898H382.02L357.537 470.764H257.328ZM290.636 453.04L315.119 439.889H408.78L387.144 453.04H290.636ZM320.813 436.744L342.449 425.023H432.978L413.62 436.744H320.813ZM348.142 421.879L367.501 411.587H455.183L438.102 421.879H348.142ZM299.746 399.294H384.297L366.931 408.728H280.388L299.746 399.294ZM208.932 399.294H292.914L273.555 408.728H187.581L208.932 399.294ZM117.833 399.294H201.246L179.895 408.728H94.4895L117.833 399.294ZM27.0195 399.294H109.862L86.5183 408.728H1.68265L27.0195 399.294ZM-63.7945 399.294H18.1942L-7.14255 408.728H-91.1242L-63.7945 399.294ZM-154.609 399.294H-73.1891L-100.519 408.728H-183.931L-154.609 399.294ZM-245.423 399.294H-164.573L-193.61 408.728H-276.453L-245.423 399.294ZM-336.237 399.294H-255.956L-286.986 408.728H-369.26L-336.237 399.294ZM-417.371 421.879L-380.363 411.587H-297.52L-332.536 421.879H-417.371ZM-331.682 425.023H-245.423L-282.147 436.744H-370.968L-331.682 425.023ZM-425.058 453.04L-380.932 439.889H-291.541L-332.82 453.04H-425.058ZM-378.939 470.764L-332.251 455.898H-238.59L-282.147 470.764H-378.939ZM-281.862 473.909H-183.931L-229.48 490.776H-331.112L-281.862 473.909ZM-395.735 512.789L-339.653 493.635H-237.451L-289.549 512.789H-395.735ZM-288.979 515.933H-181.369L-236.028 537.946H-348.193L-288.979 515.933ZM-425.058 565.963L-356.734 540.805H-243.999L-307.199 565.963H-425.058ZM-379.508 598.267L-306.345 569.107H-187.062L-253.963 598.267H-379.508ZM-331.397 635.718L-253.109 601.412H-126.14L-197.026 635.718H-331.397ZM-196.457 638.576H-61.2324L-136.389 678.886H-280.439L-196.457 638.576ZM-231.758 730.344H-386.626L-286.702 682.03H-142.082L-231.758 730.344ZM-70.0576 730.344H-225.495L-135.819 682.03H9.36905L-70.0576 730.344ZM91.3579 730.344L-64.364 730.058L15.0627 681.744H160.821L91.3579 730.344ZM165.376 678.886H20.4718L87.0877 638.576H223.451L165.376 678.886ZM227.721 635.718H91.9272L148.295 601.412H276.971L227.721 635.718ZM281.242 598.267H153.419L201.53 569.107H323.09L281.242 598.267ZM327.645 565.963H206.655L248.219 540.805H363.8L327.645 565.963ZM367.786 537.946L253.058 537.66L289.213 515.648H399.67L367.786 537.946ZM403.94 512.789H294.337L325.937 493.635H431.555L403.94 512.789ZM435.825 490.776H330.777L358.676 473.909H460.023L435.825 490.776ZM464.293 470.764H363.515L387.998 455.898H485.645L464.293 470.764ZM489.915 453.04H392.838L414.474 439.889H508.704L489.915 453.04ZM513.259 436.744H419.598L438.956 425.023H530.055L513.259 436.744ZM534.325 421.879H444.081L461.162 411.587H549.414L534.325 421.879ZM553.684 408.728H466.286L481.659 399.294H567.349L553.684 408.728Z" fill="url(#paint0_linear)"/>
<path d="M-31.0559 807.246L557.385 407.871L557.67 408.156L-22.5154 819.539L-31.0559 807.246Z" fill="url(#paint1_linear)"/>
<path d="M331.346 428.168L-356.164 806.388L-363.281 793.238L331.062 427.596L331.346 428.168Z" fill="url(#paint2_linear)"/>
<path d="M-441 576.254L28.1584 393.862L27.8737 393.29L-441 566.534V576.254Z" fill="url(#paint3_linear)"/>
<path d="M786.271 385.283L1366.17 790.948H1792.63V386.998L786.271 385.283Z" fill="#270048"/>
<path d="M1811.7 754.358V750.928L1774.97 733.203H1811.7V730.344H1768.43L1668.5 682.03H1811.7V678.314L1720.88 638.576H1811.7V635.432H1714.05L1635.76 601.126H1762.16L1811.7 620.852V617.707L1770.14 601.126H1811.7V597.981H1762.73L1689.57 568.821H1808.28L1811.7 569.965V565.677H1808.85L1740.53 540.519H1811.7V537.375H1732.27L1672.77 515.362H1779.81L1811.7 526.225V523.08L1789.21 515.362H1811.7V512.217H1780.38L1724.3 493.063H1811.7V489.918H1715.48L1666.23 473.051H1763.59L1811.7 488.489V485.344L1773.55 473.051H1811.7V469.907H1763.87L1717.18 455.041H1810.56L1811.98 455.327V453.04H1811.13L1767 439.889H1811.98V436.744H1756.76L1717.47 425.023H1803.16L1811.7 427.31V421.879H1803.73L1766.72 411.587H1811.98V408.442H1755.9L1722.88 399.008H1802.59L1811.98 401.581V396.149H1802.87L1761.31 385L1760.46 387.859L1790.92 395.863H1711.78L1672.49 385L1671.63 387.859L1700.39 395.863H1620.68L1583.95 385L1583.1 387.859L1610.14 395.863H1529.86L1495.42 385L1494.56 387.859L1519.9 395.863H1439.05L1406.88 385L1406.03 387.859L1429.65 395.863H1348.23L1318.63 385L1317.49 387.859L1339.41 395.863H1257.42L1230.09 385L1228.95 387.859L1249.16 395.863H1166.61L1141.55 385L1140.42 387.859L1159.2 396.149H1076.08L1053.59 385.286L1052.16 388.145L1069.24 396.435H985.263L965.05 385.572L963.627 388.145L979 396.435H894.449L876.514 385.572L875.09 388.145L888.755 396.435H803.919L788.546 385.572L786.838 388.145L803.065 399.58L1386.38 805.817L1388.09 803.244L1287.88 733.203H1444.46L1563.74 805.531L1565.16 802.958L1450.15 733.203H1606.16L1740.81 805.531L1742.24 802.958L1612.42 733.203H1767.86L1811.7 754.358ZM1805.72 678.886H1662.52L1578.83 638.576H1713.48L1805.72 678.886ZM1369.87 537.946L1324.32 515.933H1433.07L1483.17 537.946H1369.87ZM1490.01 540.805L1547.8 565.963H1428.51L1376.13 540.805H1490.01ZM1366.45 439.889H1457.84L1493.42 453.04H1399.19L1366.45 439.889ZM1435.92 470.764H1337.42L1303.54 455.898H1398.91L1435.92 470.764ZM1391.22 453.04H1296.42L1266.25 439.889H1358.2L1391.22 453.04ZM1289.02 453.04H1193.65L1166.32 439.889H1258.84L1289.02 453.04ZM1295.85 455.898L1329.73 470.764H1230.66L1199.91 455.898H1295.85ZM1336.85 473.909L1375.28 490.776H1271.94L1236.92 473.909H1336.85ZM1382.11 493.635L1425.95 512.789H1317.77L1277.92 493.635H1382.11ZM1389.8 493.635H1493.14L1540.96 512.789H1433.64L1389.8 493.635ZM1382.97 490.776L1344.53 473.909H1443.6L1485.74 490.776H1382.97ZM1406.88 455.898H1501.68L1541.82 470.764H1443.89L1406.88 455.898ZM1466.66 439.889H1557.48L1595.91 453.04H1502.25L1466.66 439.889ZM1458.41 436.744L1426.81 425.023H1514.49L1548.65 436.744H1458.41ZM1449.58 436.744H1358.77L1329.45 425.023H1417.7L1449.58 436.744ZM1350.8 436.744H1259.41L1232.65 425.023H1321.47L1350.8 436.744ZM1252.01 436.744H1160.06L1135.86 425.023H1225.25L1252.01 436.744ZM1153.23 436.744H1060.7L1039.07 425.023H1129.03L1153.23 436.744ZM1159.49 439.889L1186.82 453.04H1090.88L1066.4 439.889H1159.49ZM1193.08 455.898L1223.83 470.764H1124.19L1096.57 455.898H1193.08ZM1230.09 473.909L1265.11 490.776H1161.2L1129.88 473.909H1230.09ZM1271.37 493.635L1311.23 512.789H1202.48L1166.89 493.635H1271.37ZM1317.2 515.933L1362.75 537.946H1248.88L1208.17 515.933H1317.2ZM1369.02 540.805L1421.4 565.963H1301.55L1254.57 540.805H1369.02ZM1427.66 569.107L1488.3 598.267H1361.61L1307.24 569.107H1427.66ZM1494.56 601.412L1565.45 635.718H1430.79L1367.02 601.412H1494.56ZM1434.49 569.107H1554.63L1621.53 598.267H1495.42L1434.49 569.107ZM1497.41 540.805H1610.71L1673.91 565.963H1555.2L1497.41 540.805ZM1490.58 537.946L1440.47 515.933H1548.65L1603.31 537.946H1490.58ZM1501.39 493.635H1604.16L1656.26 512.789H1549.51L1501.39 493.635ZM1493.71 490.776L1451.57 473.909H1550.07L1595.62 490.776H1493.71ZM1510.5 455.898H1604.73L1648.29 470.764H1550.93L1510.5 455.898ZM1566.59 439.889H1656.83L1698.11 453.04H1605.3L1566.59 439.889ZM1557.76 436.744L1523.6 425.023H1610.71L1647.44 436.744H1557.76ZM1578.54 411.587H1661.96L1696.97 421.879H1611.28L1578.54 411.587ZM1601.03 421.879H1514.77L1484.31 411.587H1568.58L1601.03 421.879ZM1505.38 421.879H1418.55L1390.37 411.587H1475.2L1505.38 421.879ZM1409.73 421.879H1322.04L1296.14 411.587H1381.54L1409.73 421.879ZM1314.07 421.879H1225.82L1201.91 411.587H1287.88L1314.07 421.879ZM1218.42 421.879H1129.6L1107.96 411.587H1194.51L1218.42 421.879ZM1122.76 421.879H1033.37L1014.02 411.587H1101.13L1122.76 421.879ZM1026.83 421.879H936.867L919.786 411.587H1007.47L1026.83 421.879ZM1032.52 425.023L1054.16 436.744H961.065L941.706 425.023H1032.52ZM1059.85 439.889L1084.33 453.04H987.825L966.189 439.889H1059.85ZM1090.03 455.898L1117.64 470.764H1017.43L992.949 455.898H1090.03ZM1123.33 473.909L1154.65 490.776H1050.17L1022.27 473.909H1123.33ZM1160.34 493.635L1195.93 512.789H1086.61L1055.01 493.635H1160.34ZM1201.62 515.933L1242.33 537.946H1127.89L1091.73 515.933H1201.62ZM1248.03 540.805L1295 565.963H1174.58L1133.01 540.805H1248.03ZM1300.69 569.107L1355.07 598.267H1227.81L1179.7 569.107H1300.69ZM1360.76 601.412L1424.53 635.718H1289.3L1232.94 601.412H1360.76ZM1429.94 638.576L1505.09 678.886H1360.76L1294.14 638.576H1429.94ZM1436.49 638.576H1571.71L1655.41 678.886H1511.64L1436.49 638.576ZM1706.65 635.718H1572.56L1501.68 601.412H1628.36L1706.65 635.718ZM1754.76 598.267H1629.22L1562.32 569.107H1681.6L1754.76 598.267ZM1800.31 565.963H1682.17L1618.97 540.805H1731.7L1800.31 565.963ZM1723.73 537.946H1611.57L1556.91 515.933H1664.52L1723.73 537.946ZM1770.99 512.789H1664.8L1612.71 493.635H1714.91L1770.99 512.789ZM1706.08 490.776H1604.45L1558.9 473.909H1656.83L1706.08 490.776ZM1754.19 470.764H1657.4L1614.13 455.898H1707.79L1754.19 470.764ZM1800.31 453.04H1708.07L1666.8 439.889H1756.19L1800.31 453.04ZM1746.22 436.744H1657.4L1620.68 425.023H1706.94L1746.22 436.744ZM1792.63 421.879H1707.5L1672.49 411.587H1755.33L1792.63 421.879ZM1711.49 399.294L1744.51 408.728H1662.52L1631.49 399.294H1711.49ZM1620.68 399.294L1651.71 408.728H1568.86L1539.83 399.294H1620.68ZM1529.86 399.294L1558.9 408.728H1475.49L1448.16 399.294H1529.86ZM1439.05 399.294L1466.38 408.728H1382.4L1357.06 399.294H1439.05ZM1348.23 399.294L1373.57 408.728H1288.74L1265.39 399.294H1348.23ZM1257.14 399.294L1280.48 408.728H1195.07L1173.72 399.294H1257.14ZM1166.32 399.294L1187.67 408.728H1101.7L1082.34 399.294H1166.32ZM1075.51 399.294L1094.87 408.728H1008.32L990.956 399.294H1075.51ZM984.693 399.294L1002.06 408.728H914.946L899.573 399.294H984.693ZM821.57 408.728L808.19 399.294H893.879L909.252 408.728H821.57ZM825.84 411.587H914.092L931.173 421.879H840.644L825.84 411.587ZM845.199 425.023H936.297L955.656 436.744H861.995L845.199 425.023ZM866.265 439.889H960.495L982.131 453.04H885.054L866.265 439.889ZM889.609 455.898H987.256L1011.74 470.764H910.96L889.609 455.898ZM915.231 473.909H1016.58L1044.48 490.776H939.429L915.231 473.909ZM943.699 493.635H1049.32L1080.92 512.789H971.313L943.699 493.635ZM1007.47 537.946L975.584 515.933H1086.04L1122.2 537.946H1007.47ZM1011.45 540.805H1127.04L1168.6 565.963H1047.61L1011.45 540.805ZM1094.01 598.267L1051.88 569.107H1173.44L1221.55 598.267H1094.01ZM1098.28 601.412H1226.96L1283.33 635.718H1147.53L1098.28 601.412ZM1151.8 638.576H1288.17L1354.78 678.886H1209.88L1151.8 638.576ZM1283.61 730.344L1214.15 682.03H1359.91L1439.33 730.344H1283.61ZM1445.03 730.344L1365.6 682.03H1510.79L1600.46 730.344H1445.03ZM1607.01 730.344L1517.34 682.03H1661.96L1761.88 730.344H1607.01Z" fill="url(#paint4_linear)"/>
<path d="M1397.49 801.814L817.016 407.871L816.732 408.156L1371.86 801.814H1397.49Z" fill="url(#paint5_linear)"/>
<path d="M1735.12 791.809L1043.34 427.596L1043.05 428.168L1704.09 791.809H1735.12Z" fill="url(#paint6_linear)"/>
<path d="M686.99 420.621L702.078 826H671.048L685.851 420.621H686.99Z" fill="url(#paint7_linear)" fill-opacity="0.5"/>
<defs>
<linearGradient id="paint0_linear" x1="79.5208" y1="359.619" x2="79.5208" y2="824.056" gradientUnits="userSpaceOnUse">
<stop stop-color="#5B00FF"/>
<stop offset="1" stop-color="#00F4FB"/>
</linearGradient>
<linearGradient id="paint1_linear" x1="-31.1237" y1="613.752" x2="561.939" y2="613.752" gradientUnits="userSpaceOnUse">
<stop stop-color="#C9FAFB"/>
<stop offset="0.0623495" stop-color="#BAFAFB"/>
<stop offset="0.1819" stop-color="#93F8FB"/>
<stop offset="0.3463" stop-color="#55F7FB"/>
<stop offset="0.5462" stop-color="#00F4FB"/>
<stop offset="0.5904" stop-color="#06E5FB" stop-opacity="0.9027"/>
<stop offset="0.675" stop-color="#14BEFC" stop-opacity="0.7163"/>
<stop offset="0.7914" stop-color="#2B80FD" stop-opacity="0.4597"/>
<stop offset="0.9337" stop-color="#4B2AFE" stop-opacity="0.1462"/>
<stop offset="1" stop-color="#5B00FF" stop-opacity="0"/>
</linearGradient>
<linearGradient id="paint2_linear" x1="-363.319" y1="617.007" x2="334.856" y2="617.007" gradientUnits="userSpaceOnUse">
<stop stop-color="#C9FAFB"/>
<stop offset="0.0623495" stop-color="#BAFAFB"/>
<stop offset="0.1819" stop-color="#93F8FB"/>
<stop offset="0.3463" stop-color="#55F7FB"/>
<stop offset="0.5462" stop-color="#00F4FB"/>
<stop offset="0.5904" stop-color="#06E5FB" stop-opacity="0.9027"/>
<stop offset="0.675" stop-color="#14BEFC" stop-opacity="0.7163"/>
<stop offset="0.7914" stop-color="#2B80FD" stop-opacity="0.4597"/>
<stop offset="0.9337" stop-color="#4B2AFE" stop-opacity="0.1462"/>
<stop offset="1" stop-color="#5B00FF" stop-opacity="0"/>
</linearGradient>
<linearGradient id="paint3_linear" x1="-762.644" y1="484.782" x2="30.6644" y2="484.782" gradientUnits="userSpaceOnUse">
<stop stop-color="#C9FAFB"/>
<stop offset="0.0623495" stop-color="#BAFAFB"/>
<stop offset="0.1819" stop-color="#93F8FB"/>
<stop offset="0.3463" stop-color="#55F7FB"/>
<stop offset="0.5462" stop-color="#00F4FB"/>
<stop offset="0.5904" stop-color="#06E5FB" stop-opacity="0.9027"/>
<stop offset="0.675" stop-color="#14BEFC" stop-opacity="0.7163"/>
<stop offset="0.7914" stop-color="#2B80FD" stop-opacity="0.4597"/>
<stop offset="0.9337" stop-color="#4B2AFE" stop-opacity="0.1462"/>
<stop offset="1" stop-color="#5B00FF" stop-opacity="0"/>
</linearGradient>
<linearGradient id="paint4_linear" x1="1299.2" y1="359.619" x2="1299.2" y2="824.056" gradientUnits="userSpaceOnUse">
<stop stop-color="#5B00FF"/>
<stop offset="1" stop-color="#00F4FB"/>
</linearGradient>
<linearGradient id="paint5_linear" x1="1405.57" y1="604.821" x2="812.51" y2="604.821" gradientUnits="userSpaceOnUse">
<stop stop-color="#C9FAFB"/>
<stop offset="0.4202" stop-color="#00F4FB"/>
<stop offset="1" stop-color="#00F4FB" stop-opacity="0"/>
</linearGradient>
<linearGradient id="paint6_linear" x1="1737.77" y1="609.659" x2="1039.59" y2="609.659" gradientUnits="userSpaceOnUse">
<stop stop-color="#C9FAFB"/>
<stop offset="0.0623495" stop-color="#BAFAFB"/>
<stop offset="0.1819" stop-color="#93F8FB"/>
<stop offset="0.3463" stop-color="#55F7FB"/>
<stop offset="0.5462" stop-color="#00F4FB"/>
<stop offset="0.5904" stop-color="#06E5FB" stop-opacity="0.9027"/>
<stop offset="0.675" stop-color="#14BEFC" stop-opacity="0.7163"/>
<stop offset="0.7914" stop-color="#2B80FD" stop-opacity="0.4597"/>
<stop offset="0.9337" stop-color="#4B2AFE" stop-opacity="0.1462"/>
<stop offset="1" stop-color="#5B00FF" stop-opacity="0"/>
</linearGradient>
<linearGradient id="paint7_linear" x1="686.504" y1="420.571" x2="686.504" y2="874.8" gradientUnits="userSpaceOnUse">
<stop stop-color="#00F4FB" stop-opacity="0"/>
<stop offset="0.5798" stop-color="#00F4FB"/>
<stop offset="1" stop-color="white"/>
</linearGradient>
</defs>
</svg>
