<svg xmlns="http://www.w3.org/2000/svg" viewBox="0 0 799.38 184.22"><defs><style>.cls-1{fill:#ed1e79;}.cls-2{fill:#fff;}.cls-3{fill:none;stroke:#fff;stroke-miterlimit:10;}</style></defs><g id="Text"><path class="cls-1" d="M119.26,202.75h69.58V232H119.26a3.67,3.67,0,1,0,0,7.33h36.62a33,33,0,0,1,0,65.92H86.3V276h69.58a3.67,3.67,0,1,0,0-7.33H119.26A32.94,32.94,0,0,1,96,212.41,31.75,31.75,0,0,1,119.26,202.75Z" transform="translate(-81.3 -180.02)"/><path class="cls-1" d="M240.11,260.1l-57.35-57.35h41.46l30.54,30.54,30.54-30.54h41.45L269.41,260.1v45.19h-29.3Z" transform="translate(-81.3 -180.02)"/><path class="cls-1" d="M350,252.77v52.52H320.68V182l73.24,73.24V202.75h29.29V326Z" transform="translate(-81.3 -180.02)"/><path class="cls-1" d="M512.79,305.29,485.47,257.9l-27.32,47.39H424.31l61.16-105.91,61.16,105.91Z" transform="translate(-81.3 -180.02)"/><path class="cls-1" d="M617.31,232H547.73V202.75h69.58A32.94,32.94,0,0,1,640.6,259a31.77,31.77,0,0,1-23.29,9.66H577v36.63H547.73V239.37h69.58a3.67,3.67,0,1,0,0-7.33Z" transform="translate(-81.3 -180.02)"/><path class="cls-1" d="M693.92,202.75H763.5V232H693.92a3.67,3.67,0,1,0,0,7.33h36.62a33,33,0,0,1,0,65.92H661V276h69.58a3.67,3.67,0,1,0,0-7.33H693.92a32.94,32.94,0,0,1-23.29-56.25A31.75,31.75,0,0,1,693.92,202.75Z" transform="translate(-81.3 -180.02)"/><path class="cls-1" d="M880.69,232H778.15V202.75H880.69Zm0,36.62H778.15V239.37H880.69Zm0,36.63H778.15V276H880.69Z" transform="translate(-81.3 -180.02)"/><path class="cls-2" d="M114.26,200.75h69.58V230H114.26a3.67,3.67,0,1,0,0,7.33h36.62a33,33,0,0,1,0,65.92H81.3V274h69.58a3.67,3.67,0,1,0,0-7.33H114.26A32.94,32.94,0,0,1,91,210.41,31.75,31.75,0,0,1,114.26,200.75Z" transform="translate(-81.3 -180.02)"/><path class="cls-2" d="M235.11,258.1l-57.35-57.35h41.46l30.54,30.54,30.54-30.54h41.45L264.41,258.1v45.19h-29.3Z" transform="translate(-81.3 -180.02)"/><path class="cls-2" d="M345,250.77v52.52H315.68V180l73.24,73.24V200.75h29.29V324Z" transform="translate(-81.3 -180.02)"/><path class="cls-2" d="M507.79,303.29,480.47,255.9l-27.32,47.39H419.31l61.16-105.91,61.16,105.91Z" transform="translate(-81.3 -180.02)"/><path class="cls-2" d="M612.31,230H542.73V200.75h69.58A32.94,32.94,0,0,1,635.6,257a31.77,31.77,0,0,1-23.29,9.66H572v36.63H542.73V237.37h69.58a3.67,3.67,0,1,0,0-7.33Z" transform="translate(-81.3 -180.02)"/><path class="cls-2" d="M688.92,200.75H758.5V230H688.92a3.67,3.67,0,1,0,0,7.33h36.62a33,33,0,0,1,0,65.92H656V274h69.58a3.67,3.67,0,1,0,0-7.33H688.92a32.94,32.94,0,0,1-23.29-56.25A31.75,31.75,0,0,1,688.92,200.75Z" transform="translate(-81.3 -180.02)"/><path class="cls-2" d="M875.69,230H773.15V200.75H875.69Zm0,36.62H773.15V237.37H875.69Zm0,36.63H773.15V274H875.69Z" transform="translate(-81.3 -180.02)"/></g><g id="Layer_4" data-name="Layer 4"><rect class="cls-2" x="339.39" y="131.84" width="456.43" height="21.29"/><path d="M432.16,315.24l.82.07c1.92.39,2.87,1.05,2.87,2V322c0,.67-.46,1.24-1.37,1.71-.56.32-2.39.48-5.48.48h-.13a.37.37,0,0,0,.13.2.43.43,0,0,0-.13.28v4.45l.13.69c-.08,0-.13,0-.13.06l.13.14c0,.09-.09.14-.27.14h-4V315.24Zm-3.29,2.05v4.86c0,.09.1.14.28.14h1.09c1,0,1.5-.21,1.5-.61v-3.9c0-.36-.41-.56-1.22-.63h-1.37C429,317.15,428.9,317.2,428.87,317.29Z" transform="translate(-81.3 -180.02)"/><path d="M452.62,330.29V315.17h3.76v13.35h3.68v1.77Z" transform="translate(-81.3 -180.02)"/><path d="M481.26,330.29l-.76-3.61-.86,1.45h-2.05l-.44,2.16h-3.37l3-15.12H482l3.08,15.12Zm-3.16-5-.17,1.05h2.55l-.17-1q-.81-4.59-1.13-8.17C479,319.3,478.65,322,478.1,325.3Z" transform="translate(-81.3 -180.02)"/><path d="M506.23,330.29h-3.75v-4.88l-3.67-10.24h3.76l1,3.15a27,27,0,0,1,1,4.16,33.08,33.08,0,0,1,1-4.16l.95-3.15H510l-3.73,10.24Z" transform="translate(-81.3 -180.02)"/><path d="M548.34,330.29V315.17h6.17a7.78,7.78,0,0,1,3.39.5,2,2,0,0,1,.89,1.88v2.57a2.29,2.29,0,0,1-.47,1.56,2.76,2.76,0,0,1-1.66.68,2.89,2.89,0,0,1,1.66.68,2.16,2.16,0,0,1,.47,1.52v3.36a1.94,1.94,0,0,1-.89,1.87,7.78,7.78,0,0,1-3.39.5Zm6.7-9.68v-2.8a.86.86,0,0,0-.22-.69,1.82,1.82,0,0,0-1-.18h-1.73v4.51h1.73a2.13,2.13,0,0,0,1-.15A.86.86,0,0,0,555,320.61Zm-1.22,2.61h-1.73v5.3h1.73a1.82,1.82,0,0,0,1-.18.86.86,0,0,0,.22-.69v-3.56a.87.87,0,0,0-.22-.69A1.82,1.82,0,0,0,553.82,323.22Z" transform="translate(-81.3 -180.02)"/><path d="M577.78,316.94v4.59h3.45l-1.68,1.76h-1.77v5.23H582v1.77h-8V315.17h8v1.77Z" transform="translate(-81.3 -180.02)"/><path d="M603.42,330.29h-3.75v-4.88L596,315.17h3.75l1,3.15a27.11,27.11,0,0,1,1,4.16,33.08,33.08,0,0,1,1-4.16l1-3.15h3.41l-3.73,10.24Z" transform="translate(-81.3 -180.02)"/><path d="M621.44,328V317.44a2,2,0,0,1,.88-1.88,7.84,7.84,0,0,1,3.4-.49h1.93a7.84,7.84,0,0,1,3.4.49,2,2,0,0,1,.88,1.88V328a2,2,0,0,1-.88,1.88,7.84,7.84,0,0,1-3.4.49h-1.93a7.84,7.84,0,0,1-3.4-.49A2,2,0,0,1,621.44,328Zm6.74-.26V317.7A.85.85,0,0,0,628,317a1.92,1.92,0,0,0-1-.17h-.51a1.92,1.92,0,0,0-1,.17.85.85,0,0,0-.22.69v10.06a.82.82,0,0,0,.22.69,1.92,1.92,0,0,0,1,.17H627a1.92,1.92,0,0,0,1-.17A.82.82,0,0,0,628.18,327.76Z" transform="translate(-81.3 -180.02)"/><path d="M653.76,330.29l-2.61-7.81a25.65,25.65,0,0,1-.82-3c.08,1.94.13,2.95.13,3v7.81h-3.25V315.17h4.7l2.17,6.59a27.59,27.59,0,0,1,.78,3c0-.09,0-.52-.06-1.3s-.07-1.35-.07-1.74v-6.57H658v15.12Z" transform="translate(-81.3 -180.02)"/><path d="M673.45,330.29V315.17h6.21a7.7,7.7,0,0,1,3.38.5,2,2,0,0,1,.86,1.88v10.37a2,2,0,0,1-.86,1.87,7.7,7.7,0,0,1-3.38.5Zm3.75-1.77h1.73a1.79,1.79,0,0,0,1-.18.86.86,0,0,0,.22-.69v-9.84a.86.86,0,0,0-.22-.69,1.79,1.79,0,0,0-1-.18H677.2Z" transform="translate(-81.3 -180.02)"/><path d="M733.63,324.91l.13,6.54-3.88-1.82v-5.09a.89.89,0,0,0-.3-.76,2.14,2.14,0,0,0-1.17-.23h-1.48v6.74h-3.75V315.17h6.17a7.81,7.81,0,0,1,3.4.5,2,2,0,0,1,.88,1.88v2.89a2.24,2.24,0,0,1-.47,1.55,2.82,2.82,0,0,1-1.66.68,2.7,2.7,0,0,1,1.66.69A2.24,2.24,0,0,1,733.63,324.91Zm-3.75-4v-3.11a.82.82,0,0,0-.22-.69,1.79,1.79,0,0,0-1-.18h-1.73v4.84h1.73a1.92,1.92,0,0,0,1-.17A.85.85,0,0,0,729.88,320.92Z" transform="translate(-81.3 -180.02)"/><path d="M752.7,316.94v4.59h3.46l-1.69,1.76H752.7v5.23h4.24v1.77h-8V315.17h8v1.77Z" transform="translate(-81.3 -180.02)"/><path d="M778.54,330.29l-.76-3.61-.86,1.45h-2l-.44,2.16h-3.37l3-15.12h5.16l3.08,15.12Zm-3.16-5-.17,1.05h2.55l-.17-1q-.83-4.59-1.14-8.17C776.28,319.3,775.92,322,775.38,325.3Z" transform="translate(-81.3 -180.02)"/><path d="M797,330.29V315.17h3.75v13.35h3.69v1.77Z" transform="translate(-81.3 -180.02)"/><path d="M818.28,324.91v-9.67l3.9-.07Q822,324,822,324.54v5.09l-3.9,1.82Z" transform="translate(-81.3 -180.02)"/><path d="M843.4,330.29h-3.75V316.92h-2.51v-1.75H846v1.75H843.4Z" transform="translate(-81.3 -180.02)"/><path d="M866.87,330.29h-3.75v-4.88l-3.66-10.24h3.75l1,3.15a27,27,0,0,1,1,4.16,33.08,33.08,0,0,1,1-4.16l1-3.15h3.41l-3.73,10.24Z" transform="translate(-81.3 -180.02)"/></g><g id="Layer_3" data-name="Layer 3"><path class="cls-2" d="M433.26,352v-1.49a.77.77,0,0,0-.2-.61,1.64,1.64,0,0,0-.92-.17h-.49a1.58,1.58,0,0,0-.92.17c-.13.11-.19.59-.19,1.46L427.25,353v-2.68a1.85,1.85,0,0,1,.78-1.75,7.12,7.12,0,0,1,3.12-.45h1.66a7.34,7.34,0,0,1,3.15.45,1.84,1.84,0,0,1,.8,1.75V352a5.35,5.35,0,0,1-.7,2.75,11,11,0,0,1-2.89,2.82,11.32,11.32,0,0,0-2.22,2,2.44,2.44,0,0,0-.54,1.44v.68h6.35v1.65h-9.89V361a3.18,3.18,0,0,1,.69-2,14.54,14.54,0,0,1,2.89-2.52,7.72,7.72,0,0,0,2.25-2.24A4.57,4.57,0,0,0,433.26,352Z" transform="translate(-81.3 -180.02)"/><path class="cls-2" d="M461.48,350.27v10.92a1.84,1.84,0,0,1-.8,1.75,7.29,7.29,0,0,1-3.14.45h-1.86a7.24,7.24,0,0,1-3.12-.45,1.84,1.84,0,0,1-.8-1.75V350.27a1.84,1.84,0,0,1,.8-1.75,7.24,7.24,0,0,1,3.12-.45h1.86a7.29,7.29,0,0,1,3.14.45A1.84,1.84,0,0,1,461.48,350.27Zm-6.22.24V361a.77.77,0,0,0,.19.61,1.64,1.64,0,0,0,.93.17h.48a1.62,1.62,0,0,0,.92-.17.77.77,0,0,0,.2-.61V350.51a.77.77,0,0,0-.2-.61,1.62,1.62,0,0,0-.92-.17h-.48a1.64,1.64,0,0,0-.93.17A.77.77,0,0,0,455.26,350.51Z" transform="translate(-81.3 -180.02)"/><path class="cls-2" d="M482.94,352v-1.49a.77.77,0,0,0-.2-.61,1.64,1.64,0,0,0-.92-.17h-.49a1.58,1.58,0,0,0-.92.17c-.13.11-.19.59-.19,1.46L476.93,353v-2.68a1.85,1.85,0,0,1,.78-1.75,7.12,7.12,0,0,1,3.12-.45h1.66a7.26,7.26,0,0,1,3.14.45,1.82,1.82,0,0,1,.8,1.75V352a5.35,5.35,0,0,1-.69,2.75,11,11,0,0,1-2.89,2.82,11.32,11.32,0,0,0-2.22,2,2.44,2.44,0,0,0-.54,1.44v.68h6.34v1.65h-9.88V361a3.23,3.23,0,0,1,.68-2,15,15,0,0,1,2.9-2.52,7.85,7.85,0,0,0,2.25-2.24A4.57,4.57,0,0,0,482.94,352Z" transform="translate(-81.3 -180.02)"/><path class="cls-2" d="M505.24,348.17v16.06l-3.55-1.41V348.17Z" transform="translate(-81.3 -180.02)"/><path class="cls-3" d="M512.81,355.29H861" transform="translate(-81.3 -180.02)"/><path class="cls-3" d="M85,355.29H416.81" transform="translate(-81.3 -180.02)"/></g></svg>