<svg width="1366" height="441" viewBox="0 0 1366 441" fill="none" xmlns="http://www.w3.org/2000/svg">
<path d="M588.985 0.285889L8.79977 405.951H-417.371V2.00119L588.985 0.285889Z" fill="#270048"/>
<path d="M586.992 0.57171L571.619 11.4352H486.783L500.448 3.14462L499.025 0.57171L481.09 11.4352H396.539L411.911 3.14462L410.488 0.57171L390.276 11.4352H306.294L323.375 3.14462L321.952 0.285811L299.462 11.1493H216.049L234.838 2.85881L233.7 0L208.647 10.8634H126.089L146.302 2.85881L145.163 0L117.833 10.8634H35.8447L57.7652 2.85881L56.6265 0L27.0195 10.8634H-54.4L-30.7712 2.85881L-31.6253 0L-63.7945 10.8634H-145.214L-119.877 2.85881L-120.731 0L-155.178 10.8634H-235.459L-208.414 2.85881L-209.268 0L-245.992 10.8634H-325.703L-296.95 2.85881L-297.804 0L-337.091 10.8634H-415.663L-385.202 2.85881L-386.056 0L-427.62 11.1493H-429.613V14.8658L-427.335 14.294H-347.624L-380.647 23.7281H-429.613V26.8728H-391.465L-428.474 37.1645H-429.613V40.595L-428.189 40.3091H-342.5L-381.786 52.0303H-429.897V55.175H-392.035L-429.897 66.6102V71.4702H-342.5L-389.188 86.336H-429.897V89.4807H-398.582L-429.897 99.4865V102.631L-388.618 89.4807H-291.257L-340.507 106.348H-429.897V109.492H-349.332L-405.415 128.646H-429.897V131.791H-414.24L-429.897 137.223V140.367L-404.845 131.791H-297.804L-357.303 153.804H-429.613V156.949H-365.559L-429.613 180.677V185.251H-314.601L-387.764 214.411H-429.897V217.555H-395.451L-429.897 231.278V234.422L-387.195 217.27H-260.796L-339.083 251.575H-429.897V254.72H-346.201L-429.897 291.313V294.743L-338.514 254.72H-203.859L-287.271 293.886H-429.613V297.03H-293.534L-393.458 345.344H-429.613V348.489H-399.721L-429.613 362.783V366.213L-392.889 348.203H-237.451L-366.982 417.958L-365.559 420.531L-230.904 348.203H-74.8972L-189.909 417.958L-188.486 420.531L-69.2036 348.203H87.3724L-12.8362 417.958L-11.1281 420.531L572.188 14.294L588.415 2.85881L586.992 0.57171ZM390.56 14.294H475.681L460.308 23.7281H373.195L390.56 14.294ZM-0.0254517 105.776L38.4068 88.9089H138.046L103.03 105.776H-0.0254517ZM97.0516 108.635L57.1959 127.789H-50.9838L-7.14255 108.635H97.0516ZM-24.2235 68.0396H-118.454L-82.8683 54.8891H8.51505L-24.2235 68.0396ZM16.7708 54.8891H108.724L78.5472 68.0396H-16.2524L16.7708 54.8891ZM-23.6541 70.8984H71.7148L37.8374 85.7643H-60.663L-23.6541 70.8984ZM45.2392 85.7643L79.1165 70.8984H175.055L144.309 85.7643H45.2392ZM86.2336 68.0396L116.41 54.8891H208.932L181.603 68.0396H86.2336ZM123.242 51.7444L150.003 40.0233H239.393L215.195 51.7444H123.242ZM115.556 51.7444H24.1726L53.495 40.0233H142.316L115.556 51.7444ZM16.2015 51.7444H-74.6125L-43.0127 40.0233H45.2392L16.2015 51.7444ZM-83.153 51.7444H-173.113L-138.951 40.0233H-51.2685L-83.153 51.7444ZM-91.4089 54.8891L-126.994 68.0396H-220.655L-182.223 54.8891H-91.4089ZM-126.425 70.8984H-31.6253L-68.6342 85.7643H-166.565L-126.425 70.8984ZM-68.3495 88.9089H30.7203L-7.71194 105.776H-110.483L-68.3495 88.9089ZM-14.5443 108.635L-58.3856 127.789H-165.711L-117.884 108.635H-14.5443ZM-57.8162 130.933H50.9329L5.38351 152.946H-107.92L-57.8162 130.933ZM-0.879486 155.805L-53.2613 180.963H-172.544L-114.753 155.805H-0.879486ZM-52.4072 184.107H68.2986L13.924 213.267H-112.76L-52.4072 184.107ZM-46.1442 180.963L6.23761 155.805H120.68L73.7075 180.963H-46.1442ZM12.5006 152.946L58.0499 130.933H167.368L126.659 152.946H12.5006ZM64.313 127.789L104.169 108.635H208.647L173.062 127.789H64.313ZM110.147 105.776L145.163 88.9089H245.372L214.057 105.776H110.147ZM151.426 85.7643L182.172 70.8984H278.68L251.065 85.7643H151.426ZM188.435 68.0396L215.765 54.8891H308.856L284.373 68.0396H188.435ZM222.028 51.7444L246.226 40.0233H336.186L314.55 51.7444H222.028ZM252.489 36.8786L274.125 26.5869H361.238L341.879 36.8786H252.489ZM245.656 36.8786H156.835L180.749 26.5869H267.292L245.656 36.8786ZM149.433 36.8786H61.1815L87.0877 26.5869H173.062L149.433 36.8786ZM52.9257 36.8786H-34.7569L-6.57315 26.5869H78.8319L52.9257 36.8786ZM-43.2974 36.8786H-130.126L-99.6647 26.5869H-14.829L-43.2974 36.8786ZM-139.52 36.8786H-225.779L-193.041 26.5869H-108.775L-139.52 36.8786ZM-236.028 36.8786H-321.718L-286.702 26.5869H-203.289L-236.028 36.8786ZM-235.459 40.0233H-148.346L-182.508 51.7444H-271.898L-235.459 40.0233ZM-191.333 54.8891L-229.765 68.0396H-322.572L-281.293 54.8891H-191.333ZM-229.48 70.8984H-135.25L-175.39 85.7643H-272.752L-229.48 70.8984ZM-175.106 88.9089H-76.6053L-118.738 105.776H-220.94L-175.106 88.9089ZM-126.14 108.635L-173.967 127.789H-280.723L-228.626 108.635H-126.14ZM-173.398 130.933H-65.218L-115.322 152.946H-228.057L-173.398 130.933ZM-122.439 155.805L-180.23 180.963H-298.943L-235.743 155.805H-122.439ZM-179.376 184.107H-59.2396L-119.877 213.267H-245.992L-179.376 184.107ZM-119.308 216.412H8.23035L-55.5387 250.718H-190.194L-119.308 216.412ZM-54.9693 253.576H80.8246L14.4934 293.886H-130.126L-54.9693 253.576ZM-49.2757 250.718L14.4934 216.412H142.601L86.2336 250.718H-49.2757ZM20.1871 213.267L74.5616 184.107H195.837L147.725 213.267H20.1871ZM80.2553 180.963L127.228 155.805H242.24L200.676 180.963H80.2553ZM132.637 152.946L173.631 130.933H283.519L247.364 152.946H132.637ZM179.325 127.789L214.911 108.635H319.959L288.359 127.789H179.325ZM220.604 105.776L251.919 88.9089H352.697L324.798 105.776H220.604ZM257.328 85.7643L284.943 70.8984H382.02L357.537 85.7643H257.328ZM290.636 68.0396L315.119 54.8891H408.78L387.144 68.0396H290.636ZM320.813 51.7444L342.449 40.0233H432.978L413.62 51.7444H320.813ZM348.142 36.8786L367.501 26.5869H455.183L438.102 36.8786H348.142ZM299.746 14.294H384.297L366.931 23.7281H280.388L299.746 14.294ZM208.932 14.294H292.914L273.555 23.7281H187.581L208.932 14.294ZM117.833 14.294H201.246L179.895 23.7281H94.4895L117.833 14.294ZM27.0195 14.294H109.862L86.5183 23.7281H1.68265L27.0195 14.294ZM-63.7945 14.294H18.1942L-7.14255 23.7281H-91.1242L-63.7945 14.294ZM-154.609 14.294H-73.1891L-100.519 23.7281H-183.931L-154.609 14.294ZM-245.423 14.294H-164.573L-193.61 23.7281H-276.453L-245.423 14.294ZM-336.237 14.294H-255.956L-286.986 23.7281H-369.26L-336.237 14.294ZM-417.371 36.8786L-380.363 26.5869H-297.52L-332.536 36.8786H-417.371ZM-331.682 40.0233H-245.423L-282.147 51.7444H-370.968L-331.682 40.0233ZM-425.058 68.0396L-380.932 54.8891H-291.541L-332.82 68.0396H-425.058ZM-378.939 85.7643L-332.251 70.8984H-238.59L-282.147 85.7643H-378.939ZM-281.862 88.9089H-183.931L-229.48 105.776H-331.112L-281.862 88.9089ZM-395.735 127.789L-339.653 108.635H-237.451L-289.549 127.789H-395.735ZM-288.979 130.933H-181.369L-236.028 152.946H-348.193L-288.979 130.933ZM-425.058 180.963L-356.734 155.805H-243.999L-307.199 180.963H-425.058ZM-379.508 213.267L-306.345 184.107H-187.062L-253.963 213.267H-379.508ZM-331.397 250.718L-253.109 216.412H-126.14L-197.026 250.718H-331.397ZM-196.457 253.576H-61.2324L-136.389 293.886H-280.439L-196.457 253.576ZM-231.758 345.344H-386.626L-286.702 297.03H-142.082L-231.758 345.344ZM-70.0576 345.344H-225.495L-135.819 297.03H9.36905L-70.0576 345.344ZM91.3579 345.344L-64.364 345.058L15.0627 296.744H160.821L91.3579 345.344ZM165.376 293.886H20.4718L87.0877 253.576H223.451L165.376 293.886ZM227.721 250.718H91.9272L148.295 216.412H276.971L227.721 250.718ZM281.242 213.267H153.419L201.53 184.107H323.09L281.242 213.267ZM327.645 180.963H206.655L248.219 155.805H363.8L327.645 180.963ZM367.786 152.946L253.058 152.66L289.213 130.648H399.67L367.786 152.946ZM403.94 127.789H294.337L325.937 108.635H431.555L403.94 127.789ZM435.825 105.776H330.777L358.676 88.9089H460.023L435.825 105.776ZM464.293 85.7643H363.515L387.998 70.8984H485.645L464.293 85.7643ZM489.915 68.0396H392.838L414.474 54.8891H508.704L489.915 68.0396ZM513.259 51.7444H419.598L438.956 40.0233H530.055L513.259 51.7444ZM534.325 36.8786H444.081L461.162 26.5869H549.414L534.325 36.8786ZM553.684 23.7281H466.286L481.659 14.294H567.349L553.684 23.7281Z" fill="url(#paint0_linear)"/>
<path d="M-31.0559 422.246L557.385 22.8706L557.67 23.1564L-22.5154 434.539L-31.0559 422.246Z" fill="url(#paint1_linear)"/>
<path d="M331.346 43.1678L-356.164 421.388L-363.281 408.238L331.062 42.5961L331.346 43.1678Z" fill="url(#paint2_linear)"/>
<path d="M-441 191.254L28.1584 8.86211L27.8737 8.29041L-441 181.534V191.254Z" fill="url(#paint3_linear)"/>
<path d="M786.271 0.282837L1366.17 405.948H1792.63V1.99814L786.271 0.282837Z" fill="#270048"/>
<path d="M1811.7 369.358V365.928L1774.97 348.203H1811.7V345.344H1768.43L1668.5 297.03H1811.7V293.314L1720.88 253.576H1811.7V250.432H1714.05L1635.76 216.126H1762.16L1811.7 235.852V232.707L1770.14 216.126H1811.7V212.981H1762.73L1689.57 183.821H1808.28L1811.7 184.965V180.677H1808.85L1740.53 155.519H1811.7V152.375H1732.27L1672.77 130.362H1779.81L1811.7 141.225V138.08L1789.21 130.362H1811.7V127.217H1780.38L1724.3 108.063H1811.7V104.918H1715.48L1666.23 88.0513H1763.59L1811.7 103.489V100.344L1773.55 88.0513H1811.7V84.9066H1763.87L1717.18 70.0408H1810.56L1811.98 70.3267V68.0396H1811.13L1767 54.8891H1811.98V51.7444H1756.76L1717.47 40.0233H1803.16L1811.7 42.3103V36.8786H1803.73L1766.72 26.5869H1811.98V23.4422H1755.9L1722.88 14.0082H1802.59L1811.98 16.5811V11.1493H1802.87L1761.31 0L1760.46 2.85881L1790.92 10.8634H1711.78L1672.49 0L1671.63 2.85881L1700.39 10.8634H1620.68L1583.95 0L1583.1 2.85881L1610.14 10.8634H1529.86L1495.42 0L1494.56 2.85881L1519.9 10.8634H1439.05L1406.88 0L1406.03 2.85881L1429.65 10.8634H1348.23L1318.63 0L1317.49 2.85881L1339.41 10.8634H1257.42L1230.09 0L1228.95 2.85881L1249.16 10.8634H1166.61L1141.55 0L1140.42 2.85881L1159.2 11.1493H1076.08L1053.59 0.285811L1052.16 3.14462L1069.24 11.4352H985.263L965.05 0.57171L963.627 3.14462L979 11.4352H894.449L876.514 0.57171L875.09 3.14462L888.755 11.4352H803.919L788.546 0.57171L786.838 3.14462L803.065 14.5799L1386.38 420.817L1388.09 418.244L1287.88 348.203H1444.46L1563.74 420.531L1565.16 417.958L1450.15 348.203H1606.16L1740.81 420.531L1742.24 417.958L1612.42 348.203H1767.86L1811.7 369.358ZM1805.72 293.886H1662.52L1578.83 253.576H1713.48L1805.72 293.886ZM1369.87 152.946L1324.32 130.933H1433.07L1483.17 152.946H1369.87ZM1490.01 155.805L1547.8 180.963H1428.51L1376.13 155.805H1490.01ZM1366.45 54.8891H1457.84L1493.42 68.0396H1399.19L1366.45 54.8891ZM1435.92 85.7643H1337.42L1303.54 70.8984H1398.91L1435.92 85.7643ZM1391.22 68.0396H1296.42L1266.25 54.8891H1358.2L1391.22 68.0396ZM1289.02 68.0396H1193.65L1166.32 54.8891H1258.84L1289.02 68.0396ZM1295.85 70.8984L1329.73 85.7643H1230.66L1199.91 70.8984H1295.85ZM1336.85 88.9089L1375.28 105.776H1271.94L1236.92 88.9089H1336.85ZM1382.11 108.635L1425.95 127.789H1317.77L1277.92 108.635H1382.11ZM1389.8 108.635H1493.14L1540.96 127.789H1433.64L1389.8 108.635ZM1382.97 105.776L1344.53 88.9089H1443.6L1485.74 105.776H1382.97ZM1406.88 70.8984H1501.68L1541.82 85.7643H1443.89L1406.88 70.8984ZM1466.66 54.8891H1557.48L1595.91 68.0396H1502.25L1466.66 54.8891ZM1458.41 51.7444L1426.81 40.0233H1514.49L1548.65 51.7444H1458.41ZM1449.58 51.7444H1358.77L1329.45 40.0233H1417.7L1449.58 51.7444ZM1350.8 51.7444H1259.41L1232.65 40.0233H1321.47L1350.8 51.7444ZM1252.01 51.7444H1160.06L1135.86 40.0233H1225.25L1252.01 51.7444ZM1153.23 51.7444H1060.7L1039.07 40.0233H1129.03L1153.23 51.7444ZM1159.49 54.8891L1186.82 68.0396H1090.88L1066.4 54.8891H1159.49ZM1193.08 70.8984L1223.83 85.7643H1124.19L1096.57 70.8984H1193.08ZM1230.09 88.9089L1265.11 105.776H1161.2L1129.88 88.9089H1230.09ZM1271.37 108.635L1311.23 127.789H1202.48L1166.89 108.635H1271.37ZM1317.2 130.933L1362.75 152.946H1248.88L1208.17 130.933H1317.2ZM1369.02 155.805L1421.4 180.963H1301.55L1254.57 155.805H1369.02ZM1427.66 184.107L1488.3 213.267H1361.61L1307.24 184.107H1427.66ZM1494.56 216.412L1565.45 250.718H1430.79L1367.02 216.412H1494.56ZM1434.49 184.107H1554.63L1621.53 213.267H1495.42L1434.49 184.107ZM1497.41 155.805H1610.71L1673.91 180.963H1555.2L1497.41 155.805ZM1490.58 152.946L1440.47 130.933H1548.65L1603.31 152.946H1490.58ZM1501.39 108.635H1604.16L1656.26 127.789H1549.51L1501.39 108.635ZM1493.71 105.776L1451.57 88.9089H1550.07L1595.62 105.776H1493.71ZM1510.5 70.8984H1604.73L1648.29 85.7643H1550.93L1510.5 70.8984ZM1566.59 54.8891H1656.83L1698.11 68.0396H1605.3L1566.59 54.8891ZM1557.76 51.7444L1523.6 40.0233H1610.71L1647.44 51.7444H1557.76ZM1578.54 26.5869H1661.96L1696.97 36.8786H1611.28L1578.54 26.5869ZM1601.03 36.8786H1514.77L1484.31 26.5869H1568.58L1601.03 36.8786ZM1505.38 36.8786H1418.55L1390.37 26.5869H1475.2L1505.38 36.8786ZM1409.73 36.8786H1322.04L1296.14 26.5869H1381.54L1409.73 36.8786ZM1314.07 36.8786H1225.82L1201.91 26.5869H1287.88L1314.07 36.8786ZM1218.42 36.8786H1129.6L1107.96 26.5869H1194.51L1218.42 36.8786ZM1122.76 36.8786H1033.37L1014.02 26.5869H1101.13L1122.76 36.8786ZM1026.83 36.8786H936.867L919.786 26.5869H1007.47L1026.83 36.8786ZM1032.52 40.0233L1054.16 51.7444H961.065L941.706 40.0233H1032.52ZM1059.85 54.8891L1084.33 68.0396H987.825L966.189 54.8891H1059.85ZM1090.03 70.8984L1117.64 85.7643H1017.43L992.949 70.8984H1090.03ZM1123.33 88.9089L1154.65 105.776H1050.17L1022.27 88.9089H1123.33ZM1160.34 108.635L1195.93 127.789H1086.61L1055.01 108.635H1160.34ZM1201.62 130.933L1242.33 152.946H1127.89L1091.73 130.933H1201.62ZM1248.03 155.805L1295 180.963H1174.58L1133.01 155.805H1248.03ZM1300.69 184.107L1355.07 213.267H1227.81L1179.7 184.107H1300.69ZM1360.76 216.412L1424.53 250.718H1289.3L1232.94 216.412H1360.76ZM1429.94 253.576L1505.09 293.886H1360.76L1294.14 253.576H1429.94ZM1436.49 253.576H1571.71L1655.41 293.886H1511.64L1436.49 253.576ZM1706.65 250.718H1572.56L1501.68 216.412H1628.36L1706.65 250.718ZM1754.76 213.267H1629.22L1562.32 184.107H1681.6L1754.76 213.267ZM1800.31 180.963H1682.17L1618.97 155.805H1731.7L1800.31 180.963ZM1723.73 152.946H1611.57L1556.91 130.933H1664.52L1723.73 152.946ZM1770.99 127.789H1664.8L1612.71 108.635H1714.91L1770.99 127.789ZM1706.08 105.776H1604.45L1558.9 88.9089H1656.83L1706.08 105.776ZM1754.19 85.7643H1657.4L1614.13 70.8984H1707.79L1754.19 85.7643ZM1800.31 68.0396H1708.07L1666.8 54.8891H1756.19L1800.31 68.0396ZM1746.22 51.7444H1657.4L1620.68 40.0233H1706.94L1746.22 51.7444ZM1792.63 36.8786H1707.5L1672.49 26.5869H1755.33L1792.63 36.8786ZM1711.49 14.294L1744.51 23.7281H1662.52L1631.49 14.294H1711.49ZM1620.68 14.294L1651.71 23.7281H1568.86L1539.83 14.294H1620.68ZM1529.86 14.294L1558.9 23.7281H1475.49L1448.16 14.294H1529.86ZM1439.05 14.294L1466.38 23.7281H1382.4L1357.06 14.294H1439.05ZM1348.23 14.294L1373.57 23.7281H1288.74L1265.39 14.294H1348.23ZM1257.14 14.294L1280.48 23.7281H1195.07L1173.72 14.294H1257.14ZM1166.32 14.294L1187.67 23.7281H1101.7L1082.34 14.294H1166.32ZM1075.51 14.294L1094.87 23.7281H1008.32L990.956 14.294H1075.51ZM984.693 14.294L1002.06 23.7281H914.946L899.573 14.294H984.693ZM821.57 23.7281L808.19 14.294H893.879L909.252 23.7281H821.57ZM825.84 26.5869H914.092L931.173 36.8786H840.644L825.84 26.5869ZM845.199 40.0233H936.297L955.656 51.7444H861.995L845.199 40.0233ZM866.265 54.8891H960.495L982.131 68.0396H885.054L866.265 54.8891ZM889.609 70.8984H987.256L1011.74 85.7643H910.96L889.609 70.8984ZM915.231 88.9089H1016.58L1044.48 105.776H939.429L915.231 88.9089ZM943.699 108.635H1049.32L1080.92 127.789H971.313L943.699 108.635ZM1007.47 152.946L975.584 130.933H1086.04L1122.2 152.946H1007.47ZM1011.45 155.805H1127.04L1168.6 180.963H1047.61L1011.45 155.805ZM1094.01 213.267L1051.88 184.107H1173.44L1221.55 213.267H1094.01ZM1098.28 216.412H1226.96L1283.33 250.718H1147.53L1098.28 216.412ZM1151.8 253.576H1288.17L1354.78 293.886H1209.88L1151.8 253.576ZM1283.61 345.344L1214.15 297.03H1359.91L1439.33 345.344H1283.61ZM1445.03 345.344L1365.6 297.03H1510.79L1600.46 345.344H1445.03ZM1607.01 345.344L1517.34 297.03H1661.96L1761.88 345.344H1607.01Z" fill="url(#paint4_linear)"/>
<path d="M1397.49 416.814L817.016 22.8706L816.732 23.1564L1371.86 416.814H1397.49Z" fill="url(#paint5_linear)"/>
<path d="M1735.12 406.809L1043.34 42.5963L1043.05 43.168L1704.09 406.809H1735.12Z" fill="url(#paint6_linear)"/>
<path d="M686.99 35.6207L702.078 441H671.048L685.851 35.6207H686.99Z" fill="url(#paint7_linear)" fill-opacity="0.5"/>
<defs>
<linearGradient id="paint0_linear" x1="79.5208" y1="-25.3814" x2="79.5208" y2="439.056" gradientUnits="userSpaceOnUse">
<stop stop-color="#5B00FF"/>
<stop offset="1" stop-color="#00F4FB"/>
</linearGradient>
<linearGradient id="paint1_linear" x1="-31.1237" y1="228.752" x2="561.939" y2="228.752" gradientUnits="userSpaceOnUse">
<stop stop-color="#C9FAFB"/>
<stop offset="0.0623495" stop-color="#BAFAFB"/>
<stop offset="0.1819" stop-color="#93F8FB"/>
<stop offset="0.3463" stop-color="#55F7FB"/>
<stop offset="0.5462" stop-color="#00F4FB"/>
<stop offset="0.5904" stop-color="#06E5FB" stop-opacity="0.9027"/>
<stop offset="0.675" stop-color="#14BEFC" stop-opacity="0.7163"/>
<stop offset="0.7914" stop-color="#2B80FD" stop-opacity="0.4597"/>
<stop offset="0.9337" stop-color="#4B2AFE" stop-opacity="0.1462"/>
<stop offset="1" stop-color="#5B00FF" stop-opacity="0"/>
</linearGradient>
<linearGradient id="paint2_linear" x1="-363.319" y1="232.007" x2="334.856" y2="232.007" gradientUnits="userSpaceOnUse">
<stop stop-color="#C9FAFB"/>
<stop offset="0.0623495" stop-color="#BAFAFB"/>
<stop offset="0.1819" stop-color="#93F8FB"/>
<stop offset="0.3463" stop-color="#55F7FB"/>
<stop offset="0.5462" stop-color="#00F4FB"/>
<stop offset="0.5904" stop-color="#06E5FB" stop-opacity="0.9027"/>
<stop offset="0.675" stop-color="#14BEFC" stop-opacity="0.7163"/>
<stop offset="0.7914" stop-color="#2B80FD" stop-opacity="0.4597"/>
<stop offset="0.9337" stop-color="#4B2AFE" stop-opacity="0.1462"/>
<stop offset="1" stop-color="#5B00FF" stop-opacity="0"/>
</linearGradient>
<linearGradient id="paint3_linear" x1="-762.644" y1="99.7823" x2="30.6644" y2="99.7823" gradientUnits="userSpaceOnUse">
<stop stop-color="#C9FAFB"/>
<stop offset="0.0623495" stop-color="#BAFAFB"/>
<stop offset="0.1819" stop-color="#93F8FB"/>
<stop offset="0.3463" stop-color="#55F7FB"/>
<stop offset="0.5462" stop-color="#00F4FB"/>
<stop offset="0.5904" stop-color="#06E5FB" stop-opacity="0.9027"/>
<stop offset="0.675" stop-color="#14BEFC" stop-opacity="0.7163"/>
<stop offset="0.7914" stop-color="#2B80FD" stop-opacity="0.4597"/>
<stop offset="0.9337" stop-color="#4B2AFE" stop-opacity="0.1462"/>
<stop offset="1" stop-color="#5B00FF" stop-opacity="0"/>
</linearGradient>
<linearGradient id="paint4_linear" x1="1299.2" y1="-25.3814" x2="1299.2" y2="439.056" gradientUnits="userSpaceOnUse">
<stop stop-color="#5B00FF"/>
<stop offset="1" stop-color="#00F4FB"/>
</linearGradient>
<linearGradient id="paint5_linear" x1="1405.57" y1="219.821" x2="812.51" y2="219.821" gradientUnits="userSpaceOnUse">
<stop stop-color="#C9FAFB"/>
<stop offset="0.4202" stop-color="#00F4FB"/>
<stop offset="1" stop-color="#00F4FB" stop-opacity="0"/>
</linearGradient>
<linearGradient id="paint6_linear" x1="1737.77" y1="224.659" x2="1039.59" y2="224.659" gradientUnits="userSpaceOnUse">
<stop stop-color="#C9FAFB"/>
<stop offset="0.0623495" stop-color="#BAFAFB"/>
<stop offset="0.1819" stop-color="#93F8FB"/>
<stop offset="0.3463" stop-color="#55F7FB"/>
<stop offset="0.5462" stop-color="#00F4FB"/>
<stop offset="0.5904" stop-color="#06E5FB" stop-opacity="0.9027"/>
<stop offset="0.675" stop-color="#14BEFC" stop-opacity="0.7163"/>
<stop offset="0.7914" stop-color="#2B80FD" stop-opacity="0.4597"/>
<stop offset="0.9337" stop-color="#4B2AFE" stop-opacity="0.1462"/>
<stop offset="1" stop-color="#5B00FF" stop-opacity="0"/>
</linearGradient>
<linearGradient id="paint7_linear" x1="686.504" y1="35.5713" x2="686.504" y2="489.8" gradientUnits="userSpaceOnUse">
<stop stop-color="#00F4FB" stop-opacity="0"/>
<stop offset="0.5798" stop-color="#00F4FB"/>
<stop offset="1" stop-color="white"/>
</linearGradient>
</defs>
</svg>
