<svg width="463" height="467" viewBox="0 0 463 467" fill="none" xmlns="http://www.w3.org/2000/svg">
<mask id="mask0" mask-type="alpha" maskUnits="userSpaceOnUse" x="0" y="0" width="463" height="467">
<path d="M462.706 310.09C462.053 331.513 460.832 352.935 453.109 373.193C450.935 378.892 446.62 384.357 442.01 388.481C404.268 422.082 361.858 447.987 313.396 463.483C307.226 465.434 300.574 466.202 294.078 466.833C279.251 468.271 269.83 460.282 263.491 448.065C258.418 438.307 256.584 427.469 257.067 416.669C258.105 393.647 260.057 370.663 261.474 347.653C262.296 334.31 262.995 320.942 259.809 307.761C257.981 300.202 254.795 293.339 248.351 288.57C232.029 276.477 214.076 284.511 207.442 299.116C203.538 307.909 201.732 317.484 202.167 327.089C202.722 343.307 203.982 359.506 205.177 375.698C206.483 393.406 208.696 411.088 205.536 428.828C203.342 441.143 198.355 451.597 186.897 458.174C177.998 463.281 168.669 462.52 159.287 460.848C138.774 457.186 119.965 448.793 101.522 439.536C77.4258 427.343 54.5298 412.927 33.134 396.477C17.6807 384.695 8.25982 370.207 5.39374 350.737C-0.958635 308.067 -2.49287 265.515 5.1326 222.872C6.51014 215.156 9.04979 207.564 11.7135 200.174C18.5751 181.399 33.9762 176.475 51.0029 179.402C65.7772 181.946 78.5146 189.316 90.7428 197.409C107.9 208.774 124.613 220.783 141.81 232.09C152.909 239.382 164.562 245.751 178.168 247.43C189.084 248.77 198.805 245.972 204.622 236.689C210.602 227.146 210.818 216.522 204.622 206.452C199.981 199.044 193.483 192.97 185.767 188.828C171.757 181.132 157.309 174.224 143.103 166.879C128.224 159.183 113.143 151.819 98.7077 143.388C92.6883 139.875 87.4262 134.501 82.9606 129.043C73.5855 117.587 73.1285 103.444 81.0021 90.8821C88.5622 78.8665 99.0081 69.5312 110.139 60.9374C140.465 37.4657 173.67 19.0682 209.421 5.02942C225.742 -1.37846 241.47 -1.7818 257.928 4.50248C300.162 20.6295 339.537 41.5251 373.93 71.0664C379.433 75.7894 384.212 81.4752 388.782 87.1024C399.705 100.627 397.922 114.315 388.286 127.71C381.385 137.292 371.88 144.155 361.519 149.438C342.24 159.268 322.582 168.375 303.107 177.828C290.049 184.171 277.384 191.125 266.801 201.325C256.668 211.084 254.24 226.293 261.441 236.507C270.679 249.603 284.167 252.686 298.413 246.682C321.622 236.923 341.012 221.31 361.78 207.733C373.977 199.7 386.68 192.455 399.809 186.044C411.293 180.495 423.528 179.682 435.508 186.233C442.036 189.811 446.11 195.243 449.218 201.625C455.649 214.941 458.449 229.253 460.317 243.748C461.538 253.369 462.171 263.069 463 272.736C462.998 273.932 462.887 275.125 462.667 276.301C462.243 276.646 461.453 276.991 461.446 277.342C461.387 287.412 461.374 297.509 461.446 307.56C461.44 308.405 462.262 309.245 462.706 310.09ZM55.7492 308.21L56.7024 308.438C57.1333 314.182 57.2639 319.972 58.08 325.664C59.3008 334.252 60.7894 343.034 66.7761 349.735C82.3208 367.215 101.776 378.424 124.796 382.867C136.75 385.17 142.567 380.74 145.1 368.861C147.973 355.44 147.379 341.909 144.558 328.638C142.841 320.571 141.196 311.691 136.633 305.172C123.726 286.723 105.948 273.588 84.7299 265.658C72.2406 261.026 65.0591 264.604 61.4618 277.511C58.6937 287.503 57.5903 297.958 55.7492 308.21ZM317.13 353.378L317.829 353.573C318.227 358.25 318.482 362.954 319.05 367.612C321.145 383.96 328.079 388.833 344.159 384.526C363.562 379.322 380.543 369.641 394.43 355.186C398.115 351.374 400.903 346.791 402.59 341.772C408.936 321.729 408.851 301.38 402.904 281.271C398.334 265.899 390.969 262.529 375.96 268.429C361.434 274.141 349.082 283.177 337.715 293.742C330.325 300.612 325.232 308.789 323.189 318.508C320.786 330.043 319.122 341.746 317.13 353.378ZM231.305 141.911C254.501 138.782 274.583 131.275 292.126 117.841C305.098 107.913 305.542 99.6255 293.934 88.0652C280.325 74.3862 263.29 64.586 244.597 59.6819C239.857 58.3808 234.438 57.7693 229.705 58.7061C207.508 62.9681 187.389 74.5324 172.573 91.5456C164.197 101.018 165.13 108.336 174.603 116.676C185.519 126.298 198.426 132.465 212.091 137.032C218.698 139.237 225.618 140.48 231.305 141.911Z" fill="url(#paint0_diamond)"/>
</mask>
<g mask="url(#mask0)">
<rect x="-80" y="-55" width="604" height="468" fill="#04B8D9"/>
</g>
<defs>
<radialGradient id="paint0_diamond" cx="0" cy="0" r="1" gradientUnits="userSpaceOnUse" gradientTransform="translate(231.5 233.5) rotate(90) scale(233.5 231.5)">
<stop stop-color="#ADF0FF"/>
<stop offset="1" stop-color="#76F6FD" stop-opacity="0.79"/>
</radialGradient>
</defs>
</svg>
