<svg xmlns="http://www.w3.org/2000/svg" version="1.1" xmlns:xlink="http://www.w3.org/1999/xlink" xmlns:svgjs="http://svgjs.com/svgjs" width="1440" height="560" preserveAspectRatio="none" viewBox="0 0 1440 560"><g mask="url(&quot;#SvgjsMask1097&quot;)" fill="none"><path d="M4.37 -11.47L45.07 12.03L45.07 59.03L4.37 82.53L-36.33 59.03L-36.33 12.03zM4.37 129.53L45.07 153.03L45.07 200.03L4.37 223.53L-36.33 200.03L-36.33 153.03zM85.78 -11.47L126.48 12.03L126.48 59.03L85.78 82.53L45.07 59.03L45.07 12.03zM126.48 59.03L167.19 82.53L167.19 129.53L126.48 153.03L85.78 129.53L85.78 82.53zM85.78 129.53L126.48 153.03L126.48 200.03L85.78 223.53L45.07 200.03L45.07 153.03zM126.48 200.03L167.19 223.53L167.19 270.53L126.48 294.03L85.78 270.53L85.78 223.53zM85.78 270.53L126.48 294.03L126.48 341.03L85.78 364.53L45.07 341.03L45.07 294.03zM126.48 341.03L167.19 364.53L167.19 411.53L126.48 435.03L85.78 411.53L85.78 364.53zM167.19 -11.47L207.89 12.03L207.89 59.03L167.19 82.53L126.48 59.03L126.48 12.03zM167.19 129.53L207.89 153.03L207.89 200.03L167.19 223.53L126.48 200.03L126.48 153.03zM167.19 411.53L207.89 435.03L207.89 482.03L167.19 505.53L126.48 482.03L126.48 435.03zM207.89 482.03L248.6 505.53L248.6 552.53L207.89 576.03L167.19 552.53L167.19 505.53zM167.19 552.53L207.89 576.03L207.89 623.03L167.19 646.53L126.48 623.03L126.48 576.03zM289.3 200.03L330 223.53L330 270.53L289.3 294.03L248.6 270.53L248.6 223.53zM289.3 341.03L330 364.53L330 411.53L289.3 435.03L248.6 411.53L248.6 364.53zM370.71 341.03L411.41 364.53L411.41 411.53L370.71 435.03L330 411.53L330 364.53zM370.71 482.03L411.41 505.53L411.41 552.53L370.71 576.03L330 552.53L330 505.53zM411.41 -11.47L452.12 12.03L452.12 59.03L411.41 82.53L370.71 59.03L370.71 12.03zM411.41 270.53L452.12 294.03L452.12 341.03L411.41 364.53L370.71 341.03L370.71 294.03zM452.12 482.03L492.82 505.53L492.82 552.53L452.12 576.03L411.41 552.53L411.41 505.53zM411.41 552.53L452.12 576.03L452.12 623.03L411.41 646.53L370.71 623.03L370.71 576.03zM492.82 270.53L533.53 294.03L533.53 341.03L492.82 364.53L452.12 341.03L452.12 294.03zM533.53 482.03L574.23 505.53L574.23 552.53L533.53 576.03L492.82 552.53L492.82 505.53zM492.82 552.53L533.53 576.03L533.53 623.03L492.82 646.53L452.12 623.03L452.12 576.03zM574.23 -11.47L614.94 12.03L614.94 59.03L574.23 82.53L533.53 59.03L533.53 12.03zM614.94 59.03L655.64 82.53L655.64 129.53L614.94 153.03L574.23 129.53L574.23 82.53zM574.23 270.53L614.94 294.03L614.94 341.03L574.23 364.53L533.53 341.03L533.53 294.03zM614.94 482.03L655.64 505.53L655.64 552.53L614.94 576.03L574.23 552.53L574.23 505.53zM696.34 200.03L737.05 223.53L737.05 270.53L696.34 294.03L655.64 270.53L655.64 223.53zM696.34 341.03L737.05 364.53L737.05 411.53L696.34 435.03L655.64 411.53L655.64 364.53zM696.34 482.03L737.05 505.53L737.05 552.53L696.34 576.03L655.64 552.53L655.64 505.53zM777.75 59.03L818.46 82.53L818.46 129.53L777.75 153.03L737.05 129.53L737.05 82.53zM737.05 270.53L777.75 294.03L777.75 341.03L737.05 364.53L696.34 341.03L696.34 294.03zM777.75 341.03L818.46 364.53L818.46 411.53L777.75 435.03L737.05 411.53L737.05 364.53zM737.05 552.53L777.75 576.03L777.75 623.03L737.05 646.53L696.34 623.03L696.34 576.03zM818.46 129.53L859.16 153.03L859.16 200.03L818.46 223.53L777.75 200.03L777.75 153.03zM859.16 200.03L899.87 223.53L899.87 270.53L859.16 294.03L818.46 270.53L818.46 223.53zM818.46 270.53L859.16 294.03L859.16 341.03L818.46 364.53L777.75 341.03L777.75 294.03zM818.46 411.53L859.16 435.03L859.16 482.03L818.46 505.53L777.75 482.03L777.75 435.03zM818.46 552.53L859.16 576.03L859.16 623.03L818.46 646.53L777.75 623.03L777.75 576.03zM899.87 -11.47L940.57 12.03L940.57 59.03L899.87 82.53L859.16 59.03L859.16 12.03zM940.57 200.03L981.27 223.53L981.27 270.53L940.57 294.03L899.87 270.53L899.87 223.53zM940.57 341.03L981.27 364.53L981.27 411.53L940.57 435.03L899.87 411.53L899.87 364.53zM899.87 411.53L940.57 435.03L940.57 482.03L899.87 505.53L859.16 482.03L859.16 435.03zM899.87 552.53L940.57 576.03L940.57 623.03L899.87 646.53L859.16 623.03L859.16 576.03zM981.27 -11.47L1021.98 12.03L1021.98 59.03L981.27 82.53L940.57 59.03L940.57 12.03zM1021.98 59.03L1062.68 82.53L1062.68 129.53L1021.98 153.03L981.27 129.53L981.27 82.53zM1021.98 200.03L1062.68 223.53L1062.68 270.53L1021.98 294.03L981.27 270.53L981.27 223.53zM1103.39 200.03L1144.09 223.53L1144.09 270.53L1103.39 294.03L1062.68 270.53L1062.68 223.53zM1144.09 129.53L1184.8 153.03L1184.8 200.03L1144.09 223.53L1103.39 200.03L1103.39 153.03zM1184.8 200.03L1225.5 223.53L1225.5 270.53L1184.8 294.03L1144.09 270.53L1144.09 223.53zM1144.09 270.53L1184.8 294.03L1184.8 341.03L1144.09 364.53L1103.39 341.03L1103.39 294.03zM1184.8 341.03L1225.5 364.53L1225.5 411.53L1184.8 435.03L1144.09 411.53L1144.09 364.53zM1144.09 411.53L1184.8 435.03L1184.8 482.03L1144.09 505.53L1103.39 482.03L1103.39 435.03zM1225.5 -11.47L1266.2 12.03L1266.2 59.03L1225.5 82.53L1184.8 59.03L1184.8 12.03zM1225.5 129.53L1266.2 153.03L1266.2 200.03L1225.5 223.53L1184.8 200.03L1184.8 153.03zM1225.5 270.53L1266.2 294.03L1266.2 341.03L1225.5 364.53L1184.8 341.03L1184.8 294.03zM1225.5 411.53L1266.2 435.03L1266.2 482.03L1225.5 505.53L1184.8 482.03L1184.8 435.03zM1266.2 482.03L1306.91 505.53L1306.91 552.53L1266.2 576.03L1225.5 552.53L1225.5 505.53zM1306.91 -11.47L1347.61 12.03L1347.61 59.03L1306.91 82.53L1266.2 59.03L1266.2 12.03zM1429.02 59.03L1469.73 82.53L1469.73 129.53L1429.02 153.03L1388.32 129.53L1388.32 82.53zM1429.02 200.03L1469.73 223.53L1469.73 270.53L1429.02 294.03L1388.32 270.53L1388.32 223.53zM1388.32 270.53L1429.02 294.03L1429.02 341.03L1388.32 364.53L1347.61 341.03L1347.61 294.03zM1388.32 411.53L1429.02 435.03L1429.02 482.03L1388.32 505.53L1347.61 482.03L1347.61 435.03zM1429.02 482.03L1469.73 505.53L1469.73 552.53L1429.02 576.03L1388.32 552.53L1388.32 505.53z" stroke="rgba(254, 255, 255, 0.37)" stroke-width="2"></path><path d="M-0.33 -11.47 a4.7 4.7 0 1 0 9.4 0 a4.7 4.7 0 1 0 -9.4 0zM40.37 12.03 a4.7 4.7 0 1 0 9.4 0 a4.7 4.7 0 1 0 -9.4 0zM40.37 59.03 a4.7 4.7 0 1 0 9.4 0 a4.7 4.7 0 1 0 -9.4 0zM-0.33 82.53 a4.7 4.7 0 1 0 9.4 0 a4.7 4.7 0 1 0 -9.4 0zM-41.03 59.03 a4.7 4.7 0 1 0 9.4 0 a4.7 4.7 0 1 0 -9.4 0zM-41.03 12.03 a4.7 4.7 0 1 0 9.4 0 a4.7 4.7 0 1 0 -9.4 0zM-0.33 129.53 a4.7 4.7 0 1 0 9.4 0 a4.7 4.7 0 1 0 -9.4 0zM40.37 153.03 a4.7 4.7 0 1 0 9.4 0 a4.7 4.7 0 1 0 -9.4 0zM40.37 200.03 a4.7 4.7 0 1 0 9.4 0 a4.7 4.7 0 1 0 -9.4 0zM-0.33 223.53 a4.7 4.7 0 1 0 9.4 0 a4.7 4.7 0 1 0 -9.4 0zM-41.03 200.03 a4.7 4.7 0 1 0 9.4 0 a4.7 4.7 0 1 0 -9.4 0zM-41.03 153.03 a4.7 4.7 0 1 0 9.4 0 a4.7 4.7 0 1 0 -9.4 0zM81.08 -11.47 a4.7 4.7 0 1 0 9.4 0 a4.7 4.7 0 1 0 -9.4 0zM121.78 12.03 a4.7 4.7 0 1 0 9.4 0 a4.7 4.7 0 1 0 -9.4 0zM121.78 59.03 a4.7 4.7 0 1 0 9.4 0 a4.7 4.7 0 1 0 -9.4 0zM81.08 82.53 a4.7 4.7 0 1 0 9.4 0 a4.7 4.7 0 1 0 -9.4 0zM162.49 82.53 a4.7 4.7 0 1 0 9.4 0 a4.7 4.7 0 1 0 -9.4 0zM162.49 129.53 a4.7 4.7 0 1 0 9.4 0 a4.7 4.7 0 1 0 -9.4 0zM121.78 153.03 a4.7 4.7 0 1 0 9.4 0 a4.7 4.7 0 1 0 -9.4 0zM81.08 129.53 a4.7 4.7 0 1 0 9.4 0 a4.7 4.7 0 1 0 -9.4 0zM121.78 200.03 a4.7 4.7 0 1 0 9.4 0 a4.7 4.7 0 1 0 -9.4 0zM81.08 223.53 a4.7 4.7 0 1 0 9.4 0 a4.7 4.7 0 1 0 -9.4 0zM162.49 223.53 a4.7 4.7 0 1 0 9.4 0 a4.7 4.7 0 1 0 -9.4 0zM162.49 270.53 a4.7 4.7 0 1 0 9.4 0 a4.7 4.7 0 1 0 -9.4 0zM121.78 294.03 a4.7 4.7 0 1 0 9.4 0 a4.7 4.7 0 1 0 -9.4 0zM81.08 270.53 a4.7 4.7 0 1 0 9.4 0 a4.7 4.7 0 1 0 -9.4 0zM121.78 341.03 a4.7 4.7 0 1 0 9.4 0 a4.7 4.7 0 1 0 -9.4 0zM81.08 364.53 a4.7 4.7 0 1 0 9.4 0 a4.7 4.7 0 1 0 -9.4 0zM40.37 341.03 a4.7 4.7 0 1 0 9.4 0 a4.7 4.7 0 1 0 -9.4 0zM40.37 294.03 a4.7 4.7 0 1 0 9.4 0 a4.7 4.7 0 1 0 -9.4 0zM162.49 364.53 a4.7 4.7 0 1 0 9.4 0 a4.7 4.7 0 1 0 -9.4 0zM162.49 411.53 a4.7 4.7 0 1 0 9.4 0 a4.7 4.7 0 1 0 -9.4 0zM121.78 435.03 a4.7 4.7 0 1 0 9.4 0 a4.7 4.7 0 1 0 -9.4 0zM81.08 411.53 a4.7 4.7 0 1 0 9.4 0 a4.7 4.7 0 1 0 -9.4 0zM162.49 -11.47 a4.7 4.7 0 1 0 9.4 0 a4.7 4.7 0 1 0 -9.4 0zM203.19 12.03 a4.7 4.7 0 1 0 9.4 0 a4.7 4.7 0 1 0 -9.4 0zM203.19 59.03 a4.7 4.7 0 1 0 9.4 0 a4.7 4.7 0 1 0 -9.4 0zM203.19 153.03 a4.7 4.7 0 1 0 9.4 0 a4.7 4.7 0 1 0 -9.4 0zM203.19 200.03 a4.7 4.7 0 1 0 9.4 0 a4.7 4.7 0 1 0 -9.4 0zM203.19 435.03 a4.7 4.7 0 1 0 9.4 0 a4.7 4.7 0 1 0 -9.4 0zM203.19 482.03 a4.7 4.7 0 1 0 9.4 0 a4.7 4.7 0 1 0 -9.4 0zM162.49 505.53 a4.7 4.7 0 1 0 9.4 0 a4.7 4.7 0 1 0 -9.4 0zM121.78 482.03 a4.7 4.7 0 1 0 9.4 0 a4.7 4.7 0 1 0 -9.4 0zM243.9 505.53 a4.7 4.7 0 1 0 9.4 0 a4.7 4.7 0 1 0 -9.4 0zM243.9 552.53 a4.7 4.7 0 1 0 9.4 0 a4.7 4.7 0 1 0 -9.4 0zM203.19 576.03 a4.7 4.7 0 1 0 9.4 0 a4.7 4.7 0 1 0 -9.4 0zM162.49 552.53 a4.7 4.7 0 1 0 9.4 0 a4.7 4.7 0 1 0 -9.4 0zM203.19 623.03 a4.7 4.7 0 1 0 9.4 0 a4.7 4.7 0 1 0 -9.4 0zM162.49 646.53 a4.7 4.7 0 1 0 9.4 0 a4.7 4.7 0 1 0 -9.4 0zM121.78 623.03 a4.7 4.7 0 1 0 9.4 0 a4.7 4.7 0 1 0 -9.4 0zM121.78 576.03 a4.7 4.7 0 1 0 9.4 0 a4.7 4.7 0 1 0 -9.4 0zM284.6 200.03 a4.7 4.7 0 1 0 9.4 0 a4.7 4.7 0 1 0 -9.4 0zM325.3 223.53 a4.7 4.7 0 1 0 9.4 0 a4.7 4.7 0 1 0 -9.4 0zM325.3 270.53 a4.7 4.7 0 1 0 9.4 0 a4.7 4.7 0 1 0 -9.4 0zM284.6 294.03 a4.7 4.7 0 1 0 9.4 0 a4.7 4.7 0 1 0 -9.4 0zM243.9 270.53 a4.7 4.7 0 1 0 9.4 0 a4.7 4.7 0 1 0 -9.4 0zM243.9 223.53 a4.7 4.7 0 1 0 9.4 0 a4.7 4.7 0 1 0 -9.4 0zM284.6 341.03 a4.7 4.7 0 1 0 9.4 0 a4.7 4.7 0 1 0 -9.4 0zM325.3 364.53 a4.7 4.7 0 1 0 9.4 0 a4.7 4.7 0 1 0 -9.4 0zM325.3 411.53 a4.7 4.7 0 1 0 9.4 0 a4.7 4.7 0 1 0 -9.4 0zM284.6 435.03 a4.7 4.7 0 1 0 9.4 0 a4.7 4.7 0 1 0 -9.4 0zM243.9 411.53 a4.7 4.7 0 1 0 9.4 0 a4.7 4.7 0 1 0 -9.4 0zM243.9 364.53 a4.7 4.7 0 1 0 9.4 0 a4.7 4.7 0 1 0 -9.4 0zM366.01 341.03 a4.7 4.7 0 1 0 9.4 0 a4.7 4.7 0 1 0 -9.4 0zM406.71 364.53 a4.7 4.7 0 1 0 9.4 0 a4.7 4.7 0 1 0 -9.4 0zM406.71 411.53 a4.7 4.7 0 1 0 9.4 0 a4.7 4.7 0 1 0 -9.4 0zM366.01 435.03 a4.7 4.7 0 1 0 9.4 0 a4.7 4.7 0 1 0 -9.4 0zM366.01 482.03 a4.7 4.7 0 1 0 9.4 0 a4.7 4.7 0 1 0 -9.4 0zM406.71 505.53 a4.7 4.7 0 1 0 9.4 0 a4.7 4.7 0 1 0 -9.4 0zM406.71 552.53 a4.7 4.7 0 1 0 9.4 0 a4.7 4.7 0 1 0 -9.4 0zM366.01 576.03 a4.7 4.7 0 1 0 9.4 0 a4.7 4.7 0 1 0 -9.4 0zM325.3 552.53 a4.7 4.7 0 1 0 9.4 0 a4.7 4.7 0 1 0 -9.4 0zM325.3 505.53 a4.7 4.7 0 1 0 9.4 0 a4.7 4.7 0 1 0 -9.4 0zM406.71 -11.47 a4.7 4.7 0 1 0 9.4 0 a4.7 4.7 0 1 0 -9.4 0zM447.42 12.03 a4.7 4.7 0 1 0 9.4 0 a4.7 4.7 0 1 0 -9.4 0zM447.42 59.03 a4.7 4.7 0 1 0 9.4 0 a4.7 4.7 0 1 0 -9.4 0zM406.71 82.53 a4.7 4.7 0 1 0 9.4 0 a4.7 4.7 0 1 0 -9.4 0zM366.01 59.03 a4.7 4.7 0 1 0 9.4 0 a4.7 4.7 0 1 0 -9.4 0zM366.01 12.03 a4.7 4.7 0 1 0 9.4 0 a4.7 4.7 0 1 0 -9.4 0zM406.71 270.53 a4.7 4.7 0 1 0 9.4 0 a4.7 4.7 0 1 0 -9.4 0zM447.42 294.03 a4.7 4.7 0 1 0 9.4 0 a4.7 4.7 0 1 0 -9.4 0zM447.42 341.03 a4.7 4.7 0 1 0 9.4 0 a4.7 4.7 0 1 0 -9.4 0zM366.01 294.03 a4.7 4.7 0 1 0 9.4 0 a4.7 4.7 0 1 0 -9.4 0zM447.42 482.03 a4.7 4.7 0 1 0 9.4 0 a4.7 4.7 0 1 0 -9.4 0zM488.12 505.53 a4.7 4.7 0 1 0 9.4 0 a4.7 4.7 0 1 0 -9.4 0zM488.12 552.53 a4.7 4.7 0 1 0 9.4 0 a4.7 4.7 0 1 0 -9.4 0zM447.42 576.03 a4.7 4.7 0 1 0 9.4 0 a4.7 4.7 0 1 0 -9.4 0zM447.42 623.03 a4.7 4.7 0 1 0 9.4 0 a4.7 4.7 0 1 0 -9.4 0zM406.71 646.53 a4.7 4.7 0 1 0 9.4 0 a4.7 4.7 0 1 0 -9.4 0zM366.01 623.03 a4.7 4.7 0 1 0 9.4 0 a4.7 4.7 0 1 0 -9.4 0zM488.12 270.53 a4.7 4.7 0 1 0 9.4 0 a4.7 4.7 0 1 0 -9.4 0zM528.83 294.03 a4.7 4.7 0 1 0 9.4 0 a4.7 4.7 0 1 0 -9.4 0zM528.83 341.03 a4.7 4.7 0 1 0 9.4 0 a4.7 4.7 0 1 0 -9.4 0zM488.12 364.53 a4.7 4.7 0 1 0 9.4 0 a4.7 4.7 0 1 0 -9.4 0zM528.83 482.03 a4.7 4.7 0 1 0 9.4 0 a4.7 4.7 0 1 0 -9.4 0zM569.53 505.53 a4.7 4.7 0 1 0 9.4 0 a4.7 4.7 0 1 0 -9.4 0zM569.53 552.53 a4.7 4.7 0 1 0 9.4 0 a4.7 4.7 0 1 0 -9.4 0zM528.83 576.03 a4.7 4.7 0 1 0 9.4 0 a4.7 4.7 0 1 0 -9.4 0zM528.83 623.03 a4.7 4.7 0 1 0 9.4 0 a4.7 4.7 0 1 0 -9.4 0zM488.12 646.53 a4.7 4.7 0 1 0 9.4 0 a4.7 4.7 0 1 0 -9.4 0zM569.53 -11.47 a4.7 4.7 0 1 0 9.4 0 a4.7 4.7 0 1 0 -9.4 0zM610.24 12.03 a4.7 4.7 0 1 0 9.4 0 a4.7 4.7 0 1 0 -9.4 0zM610.24 59.03 a4.7 4.7 0 1 0 9.4 0 a4.7 4.7 0 1 0 -9.4 0zM569.53 82.53 a4.7 4.7 0 1 0 9.4 0 a4.7 4.7 0 1 0 -9.4 0zM528.83 59.03 a4.7 4.7 0 1 0 9.4 0 a4.7 4.7 0 1 0 -9.4 0zM528.83 12.03 a4.7 4.7 0 1 0 9.4 0 a4.7 4.7 0 1 0 -9.4 0zM650.94 82.53 a4.7 4.7 0 1 0 9.4 0 a4.7 4.7 0 1 0 -9.4 0zM650.94 129.53 a4.7 4.7 0 1 0 9.4 0 a4.7 4.7 0 1 0 -9.4 0zM610.24 153.03 a4.7 4.7 0 1 0 9.4 0 a4.7 4.7 0 1 0 -9.4 0zM569.53 129.53 a4.7 4.7 0 1 0 9.4 0 a4.7 4.7 0 1 0 -9.4 0zM569.53 270.53 a4.7 4.7 0 1 0 9.4 0 a4.7 4.7 0 1 0 -9.4 0zM610.24 294.03 a4.7 4.7 0 1 0 9.4 0 a4.7 4.7 0 1 0 -9.4 0zM610.24 341.03 a4.7 4.7 0 1 0 9.4 0 a4.7 4.7 0 1 0 -9.4 0zM569.53 364.53 a4.7 4.7 0 1 0 9.4 0 a4.7 4.7 0 1 0 -9.4 0zM610.24 482.03 a4.7 4.7 0 1 0 9.4 0 a4.7 4.7 0 1 0 -9.4 0zM650.94 505.53 a4.7 4.7 0 1 0 9.4 0 a4.7 4.7 0 1 0 -9.4 0zM650.94 552.53 a4.7 4.7 0 1 0 9.4 0 a4.7 4.7 0 1 0 -9.4 0zM610.24 576.03 a4.7 4.7 0 1 0 9.4 0 a4.7 4.7 0 1 0 -9.4 0zM691.64 200.03 a4.7 4.7 0 1 0 9.4 0 a4.7 4.7 0 1 0 -9.4 0zM732.35 223.53 a4.7 4.7 0 1 0 9.4 0 a4.7 4.7 0 1 0 -9.4 0zM732.35 270.53 a4.7 4.7 0 1 0 9.4 0 a4.7 4.7 0 1 0 -9.4 0zM691.64 294.03 a4.7 4.7 0 1 0 9.4 0 a4.7 4.7 0 1 0 -9.4 0zM650.94 270.53 a4.7 4.7 0 1 0 9.4 0 a4.7 4.7 0 1 0 -9.4 0zM650.94 223.53 a4.7 4.7 0 1 0 9.4 0 a4.7 4.7 0 1 0 -9.4 0zM691.64 341.03 a4.7 4.7 0 1 0 9.4 0 a4.7 4.7 0 1 0 -9.4 0zM732.35 364.53 a4.7 4.7 0 1 0 9.4 0 a4.7 4.7 0 1 0 -9.4 0zM732.35 411.53 a4.7 4.7 0 1 0 9.4 0 a4.7 4.7 0 1 0 -9.4 0zM691.64 435.03 a4.7 4.7 0 1 0 9.4 0 a4.7 4.7 0 1 0 -9.4 0zM650.94 411.53 a4.7 4.7 0 1 0 9.4 0 a4.7 4.7 0 1 0 -9.4 0zM650.94 364.53 a4.7 4.7 0 1 0 9.4 0 a4.7 4.7 0 1 0 -9.4 0zM691.64 482.03 a4.7 4.7 0 1 0 9.4 0 a4.7 4.7 0 1 0 -9.4 0zM732.35 505.53 a4.7 4.7 0 1 0 9.4 0 a4.7 4.7 0 1 0 -9.4 0zM732.35 552.53 a4.7 4.7 0 1 0 9.4 0 a4.7 4.7 0 1 0 -9.4 0zM691.64 576.03 a4.7 4.7 0 1 0 9.4 0 a4.7 4.7 0 1 0 -9.4 0zM773.05 59.03 a4.7 4.7 0 1 0 9.4 0 a4.7 4.7 0 1 0 -9.4 0zM813.76 82.53 a4.7 4.7 0 1 0 9.4 0 a4.7 4.7 0 1 0 -9.4 0zM813.76 129.53 a4.7 4.7 0 1 0 9.4 0 a4.7 4.7 0 1 0 -9.4 0zM773.05 153.03 a4.7 4.7 0 1 0 9.4 0 a4.7 4.7 0 1 0 -9.4 0zM732.35 129.53 a4.7 4.7 0 1 0 9.4 0 a4.7 4.7 0 1 0 -9.4 0zM732.35 82.53 a4.7 4.7 0 1 0 9.4 0 a4.7 4.7 0 1 0 -9.4 0zM773.05 294.03 a4.7 4.7 0 1 0 9.4 0 a4.7 4.7 0 1 0 -9.4 0zM773.05 341.03 a4.7 4.7 0 1 0 9.4 0 a4.7 4.7 0 1 0 -9.4 0zM813.76 364.53 a4.7 4.7 0 1 0 9.4 0 a4.7 4.7 0 1 0 -9.4 0zM813.76 411.53 a4.7 4.7 0 1 0 9.4 0 a4.7 4.7 0 1 0 -9.4 0zM773.05 435.03 a4.7 4.7 0 1 0 9.4 0 a4.7 4.7 0 1 0 -9.4 0zM773.05 576.03 a4.7 4.7 0 1 0 9.4 0 a4.7 4.7 0 1 0 -9.4 0zM773.05 623.03 a4.7 4.7 0 1 0 9.4 0 a4.7 4.7 0 1 0 -9.4 0zM732.35 646.53 a4.7 4.7 0 1 0 9.4 0 a4.7 4.7 0 1 0 -9.4 0zM691.64 623.03 a4.7 4.7 0 1 0 9.4 0 a4.7 4.7 0 1 0 -9.4 0zM854.46 153.03 a4.7 4.7 0 1 0 9.4 0 a4.7 4.7 0 1 0 -9.4 0zM854.46 200.03 a4.7 4.7 0 1 0 9.4 0 a4.7 4.7 0 1 0 -9.4 0zM813.76 223.53 a4.7 4.7 0 1 0 9.4 0 a4.7 4.7 0 1 0 -9.4 0zM773.05 200.03 a4.7 4.7 0 1 0 9.4 0 a4.7 4.7 0 1 0 -9.4 0zM895.17 223.53 a4.7 4.7 0 1 0 9.4 0 a4.7 4.7 0 1 0 -9.4 0zM895.17 270.53 a4.7 4.7 0 1 0 9.4 0 a4.7 4.7 0 1 0 -9.4 0zM854.46 294.03 a4.7 4.7 0 1 0 9.4 0 a4.7 4.7 0 1 0 -9.4 0zM813.76 270.53 a4.7 4.7 0 1 0 9.4 0 a4.7 4.7 0 1 0 -9.4 0zM854.46 341.03 a4.7 4.7 0 1 0 9.4 0 a4.7 4.7 0 1 0 -9.4 0zM854.46 435.03 a4.7 4.7 0 1 0 9.4 0 a4.7 4.7 0 1 0 -9.4 0zM854.46 482.03 a4.7 4.7 0 1 0 9.4 0 a4.7 4.7 0 1 0 -9.4 0zM813.76 505.53 a4.7 4.7 0 1 0 9.4 0 a4.7 4.7 0 1 0 -9.4 0zM773.05 482.03 a4.7 4.7 0 1 0 9.4 0 a4.7 4.7 0 1 0 -9.4 0zM813.76 552.53 a4.7 4.7 0 1 0 9.4 0 a4.7 4.7 0 1 0 -9.4 0zM854.46 576.03 a4.7 4.7 0 1 0 9.4 0 a4.7 4.7 0 1 0 -9.4 0zM854.46 623.03 a4.7 4.7 0 1 0 9.4 0 a4.7 4.7 0 1 0 -9.4 0zM813.76 646.53 a4.7 4.7 0 1 0 9.4 0 a4.7 4.7 0 1 0 -9.4 0zM895.17 -11.47 a4.7 4.7 0 1 0 9.4 0 a4.7 4.7 0 1 0 -9.4 0zM935.87 12.03 a4.7 4.7 0 1 0 9.4 0 a4.7 4.7 0 1 0 -9.4 0zM935.87 59.03 a4.7 4.7 0 1 0 9.4 0 a4.7 4.7 0 1 0 -9.4 0zM895.17 82.53 a4.7 4.7 0 1 0 9.4 0 a4.7 4.7 0 1 0 -9.4 0zM854.46 59.03 a4.7 4.7 0 1 0 9.4 0 a4.7 4.7 0 1 0 -9.4 0zM854.46 12.03 a4.7 4.7 0 1 0 9.4 0 a4.7 4.7 0 1 0 -9.4 0zM935.87 200.03 a4.7 4.7 0 1 0 9.4 0 a4.7 4.7 0 1 0 -9.4 0zM976.57 223.53 a4.7 4.7 0 1 0 9.4 0 a4.7 4.7 0 1 0 -9.4 0zM976.57 270.53 a4.7 4.7 0 1 0 9.4 0 a4.7 4.7 0 1 0 -9.4 0zM935.87 294.03 a4.7 4.7 0 1 0 9.4 0 a4.7 4.7 0 1 0 -9.4 0zM935.87 341.03 a4.7 4.7 0 1 0 9.4 0 a4.7 4.7 0 1 0 -9.4 0zM976.57 364.53 a4.7 4.7 0 1 0 9.4 0 a4.7 4.7 0 1 0 -9.4 0zM976.57 411.53 a4.7 4.7 0 1 0 9.4 0 a4.7 4.7 0 1 0 -9.4 0zM935.87 435.03 a4.7 4.7 0 1 0 9.4 0 a4.7 4.7 0 1 0 -9.4 0zM895.17 411.53 a4.7 4.7 0 1 0 9.4 0 a4.7 4.7 0 1 0 -9.4 0zM895.17 364.53 a4.7 4.7 0 1 0 9.4 0 a4.7 4.7 0 1 0 -9.4 0zM935.87 482.03 a4.7 4.7 0 1 0 9.4 0 a4.7 4.7 0 1 0 -9.4 0zM895.17 505.53 a4.7 4.7 0 1 0 9.4 0 a4.7 4.7 0 1 0 -9.4 0zM895.17 552.53 a4.7 4.7 0 1 0 9.4 0 a4.7 4.7 0 1 0 -9.4 0zM935.87 576.03 a4.7 4.7 0 1 0 9.4 0 a4.7 4.7 0 1 0 -9.4 0zM935.87 623.03 a4.7 4.7 0 1 0 9.4 0 a4.7 4.7 0 1 0 -9.4 0zM895.17 646.53 a4.7 4.7 0 1 0 9.4 0 a4.7 4.7 0 1 0 -9.4 0zM976.57 -11.47 a4.7 4.7 0 1 0 9.4 0 a4.7 4.7 0 1 0 -9.4 0zM1017.28 12.03 a4.7 4.7 0 1 0 9.4 0 a4.7 4.7 0 1 0 -9.4 0zM1017.28 59.03 a4.7 4.7 0 1 0 9.4 0 a4.7 4.7 0 1 0 -9.4 0zM976.57 82.53 a4.7 4.7 0 1 0 9.4 0 a4.7 4.7 0 1 0 -9.4 0zM1057.98 82.53 a4.7 4.7 0 1 0 9.4 0 a4.7 4.7 0 1 0 -9.4 0zM1057.98 129.53 a4.7 4.7 0 1 0 9.4 0 a4.7 4.7 0 1 0 -9.4 0zM1017.28 153.03 a4.7 4.7 0 1 0 9.4 0 a4.7 4.7 0 1 0 -9.4 0zM976.57 129.53 a4.7 4.7 0 1 0 9.4 0 a4.7 4.7 0 1 0 -9.4 0zM1017.28 200.03 a4.7 4.7 0 1 0 9.4 0 a4.7 4.7 0 1 0 -9.4 0zM1057.98 223.53 a4.7 4.7 0 1 0 9.4 0 a4.7 4.7 0 1 0 -9.4 0zM1057.98 270.53 a4.7 4.7 0 1 0 9.4 0 a4.7 4.7 0 1 0 -9.4 0zM1017.28 294.03 a4.7 4.7 0 1 0 9.4 0 a4.7 4.7 0 1 0 -9.4 0zM1098.69 200.03 a4.7 4.7 0 1 0 9.4 0 a4.7 4.7 0 1 0 -9.4 0zM1139.39 223.53 a4.7 4.7 0 1 0 9.4 0 a4.7 4.7 0 1 0 -9.4 0zM1139.39 270.53 a4.7 4.7 0 1 0 9.4 0 a4.7 4.7 0 1 0 -9.4 0zM1098.69 294.03 a4.7 4.7 0 1 0 9.4 0 a4.7 4.7 0 1 0 -9.4 0zM1139.39 129.53 a4.7 4.7 0 1 0 9.4 0 a4.7 4.7 0 1 0 -9.4 0zM1180.1 153.03 a4.7 4.7 0 1 0 9.4 0 a4.7 4.7 0 1 0 -9.4 0zM1180.1 200.03 a4.7 4.7 0 1 0 9.4 0 a4.7 4.7 0 1 0 -9.4 0zM1098.69 153.03 a4.7 4.7 0 1 0 9.4 0 a4.7 4.7 0 1 0 -9.4 0zM1220.8 223.53 a4.7 4.7 0 1 0 9.4 0 a4.7 4.7 0 1 0 -9.4 0zM1220.8 270.53 a4.7 4.7 0 1 0 9.4 0 a4.7 4.7 0 1 0 -9.4 0zM1180.1 294.03 a4.7 4.7 0 1 0 9.4 0 a4.7 4.7 0 1 0 -9.4 0zM1180.1 341.03 a4.7 4.7 0 1 0 9.4 0 a4.7 4.7 0 1 0 -9.4 0zM1139.39 364.53 a4.7 4.7 0 1 0 9.4 0 a4.7 4.7 0 1 0 -9.4 0zM1098.69 341.03 a4.7 4.7 0 1 0 9.4 0 a4.7 4.7 0 1 0 -9.4 0zM1220.8 364.53 a4.7 4.7 0 1 0 9.4 0 a4.7 4.7 0 1 0 -9.4 0zM1220.8 411.53 a4.7 4.7 0 1 0 9.4 0 a4.7 4.7 0 1 0 -9.4 0zM1180.1 435.03 a4.7 4.7 0 1 0 9.4 0 a4.7 4.7 0 1 0 -9.4 0zM1139.39 411.53 a4.7 4.7 0 1 0 9.4 0 a4.7 4.7 0 1 0 -9.4 0zM1180.1 482.03 a4.7 4.7 0 1 0 9.4 0 a4.7 4.7 0 1 0 -9.4 0zM1139.39 505.53 a4.7 4.7 0 1 0 9.4 0 a4.7 4.7 0 1 0 -9.4 0zM1098.69 482.03 a4.7 4.7 0 1 0 9.4 0 a4.7 4.7 0 1 0 -9.4 0zM1098.69 435.03 a4.7 4.7 0 1 0 9.4 0 a4.7 4.7 0 1 0 -9.4 0zM1220.8 -11.47 a4.7 4.7 0 1 0 9.4 0 a4.7 4.7 0 1 0 -9.4 0zM1261.5 12.03 a4.7 4.7 0 1 0 9.4 0 a4.7 4.7 0 1 0 -9.4 0zM1261.5 59.03 a4.7 4.7 0 1 0 9.4 0 a4.7 4.7 0 1 0 -9.4 0zM1220.8 82.53 a4.7 4.7 0 1 0 9.4 0 a4.7 4.7 0 1 0 -9.4 0zM1180.1 59.03 a4.7 4.7 0 1 0 9.4 0 a4.7 4.7 0 1 0 -9.4 0zM1180.1 12.03 a4.7 4.7 0 1 0 9.4 0 a4.7 4.7 0 1 0 -9.4 0zM1220.8 129.53 a4.7 4.7 0 1 0 9.4 0 a4.7 4.7 0 1 0 -9.4 0zM1261.5 153.03 a4.7 4.7 0 1 0 9.4 0 a4.7 4.7 0 1 0 -9.4 0zM1261.5 200.03 a4.7 4.7 0 1 0 9.4 0 a4.7 4.7 0 1 0 -9.4 0zM1261.5 294.03 a4.7 4.7 0 1 0 9.4 0 a4.7 4.7 0 1 0 -9.4 0zM1261.5 341.03 a4.7 4.7 0 1 0 9.4 0 a4.7 4.7 0 1 0 -9.4 0zM1261.5 435.03 a4.7 4.7 0 1 0 9.4 0 a4.7 4.7 0 1 0 -9.4 0zM1261.5 482.03 a4.7 4.7 0 1 0 9.4 0 a4.7 4.7 0 1 0 -9.4 0zM1220.8 505.53 a4.7 4.7 0 1 0 9.4 0 a4.7 4.7 0 1 0 -9.4 0zM1302.21 505.53 a4.7 4.7 0 1 0 9.4 0 a4.7 4.7 0 1 0 -9.4 0zM1302.21 552.53 a4.7 4.7 0 1 0 9.4 0 a4.7 4.7 0 1 0 -9.4 0zM1261.5 576.03 a4.7 4.7 0 1 0 9.4 0 a4.7 4.7 0 1 0 -9.4 0zM1220.8 552.53 a4.7 4.7 0 1 0 9.4 0 a4.7 4.7 0 1 0 -9.4 0zM1302.21 -11.47 a4.7 4.7 0 1 0 9.4 0 a4.7 4.7 0 1 0 -9.4 0zM1342.91 12.03 a4.7 4.7 0 1 0 9.4 0 a4.7 4.7 0 1 0 -9.4 0zM1342.91 59.03 a4.7 4.7 0 1 0 9.4 0 a4.7 4.7 0 1 0 -9.4 0zM1302.21 82.53 a4.7 4.7 0 1 0 9.4 0 a4.7 4.7 0 1 0 -9.4 0zM1424.32 59.03 a4.7 4.7 0 1 0 9.4 0 a4.7 4.7 0 1 0 -9.4 0zM1465.03 82.53 a4.7 4.7 0 1 0 9.4 0 a4.7 4.7 0 1 0 -9.4 0zM1465.03 129.53 a4.7 4.7 0 1 0 9.4 0 a4.7 4.7 0 1 0 -9.4 0zM1424.32 153.03 a4.7 4.7 0 1 0 9.4 0 a4.7 4.7 0 1 0 -9.4 0zM1383.62 129.53 a4.7 4.7 0 1 0 9.4 0 a4.7 4.7 0 1 0 -9.4 0zM1383.62 82.53 a4.7 4.7 0 1 0 9.4 0 a4.7 4.7 0 1 0 -9.4 0zM1424.32 200.03 a4.7 4.7 0 1 0 9.4 0 a4.7 4.7 0 1 0 -9.4 0zM1465.03 223.53 a4.7 4.7 0 1 0 9.4 0 a4.7 4.7 0 1 0 -9.4 0zM1465.03 270.53 a4.7 4.7 0 1 0 9.4 0 a4.7 4.7 0 1 0 -9.4 0zM1424.32 294.03 a4.7 4.7 0 1 0 9.4 0 a4.7 4.7 0 1 0 -9.4 0zM1383.62 270.53 a4.7 4.7 0 1 0 9.4 0 a4.7 4.7 0 1 0 -9.4 0zM1383.62 223.53 a4.7 4.7 0 1 0 9.4 0 a4.7 4.7 0 1 0 -9.4 0zM1424.32 341.03 a4.7 4.7 0 1 0 9.4 0 a4.7 4.7 0 1 0 -9.4 0zM1383.62 364.53 a4.7 4.7 0 1 0 9.4 0 a4.7 4.7 0 1 0 -9.4 0zM1342.91 341.03 a4.7 4.7 0 1 0 9.4 0 a4.7 4.7 0 1 0 -9.4 0zM1342.91 294.03 a4.7 4.7 0 1 0 9.4 0 a4.7 4.7 0 1 0 -9.4 0zM1383.62 411.53 a4.7 4.7 0 1 0 9.4 0 a4.7 4.7 0 1 0 -9.4 0zM1424.32 435.03 a4.7 4.7 0 1 0 9.4 0 a4.7 4.7 0 1 0 -9.4 0zM1424.32 482.03 a4.7 4.7 0 1 0 9.4 0 a4.7 4.7 0 1 0 -9.4 0zM1383.62 505.53 a4.7 4.7 0 1 0 9.4 0 a4.7 4.7 0 1 0 -9.4 0zM1342.91 482.03 a4.7 4.7 0 1 0 9.4 0 a4.7 4.7 0 1 0 -9.4 0zM1342.91 435.03 a4.7 4.7 0 1 0 9.4 0 a4.7 4.7 0 1 0 -9.4 0zM1465.03 505.53 a4.7 4.7 0 1 0 9.4 0 a4.7 4.7 0 1 0 -9.4 0zM1465.03 552.53 a4.7 4.7 0 1 0 9.4 0 a4.7 4.7 0 1 0 -9.4 0zM1424.32 576.03 a4.7 4.7 0 1 0 9.4 0 a4.7 4.7 0 1 0 -9.4 0zM1383.62 552.53 a4.7 4.7 0 1 0 9.4 0 a4.7 4.7 0 1 0 -9.4 0z" fill="rgba(254, 255, 255, 0.37)"></path><path d="M8.75 -33.08L52.05 -8.08L52.05 41.92L8.75 66.92L-34.55 41.92L-34.55 -8.08zM52.05 341.92L95.36 366.92L95.36 416.92L52.05 441.92L8.75 416.92L8.75 366.92zM225.26 491.92L268.56 516.92L268.56 566.92L225.26 591.92L181.96 566.92L181.96 516.92zM311.87 491.92L355.17 516.92L355.17 566.92L311.87 591.92L268.56 566.92L268.56 516.92zM398.47 41.92L441.78 66.92L441.78 116.92L398.47 141.92L355.17 116.92L355.17 66.92zM398.47 191.92L441.78 216.92L441.78 266.92L398.47 291.92L355.17 266.92L355.17 216.92zM441.78 116.92L485.08 141.92L485.08 191.92L441.78 216.92L398.47 191.92L398.47 141.92zM441.78 266.92L485.08 291.92L485.08 341.92L441.78 366.92L398.47 341.92L398.47 291.92zM441.78 416.92L485.08 441.92L485.08 491.92L441.78 516.92L398.47 491.92L398.47 441.92zM528.38 -33.08L571.68 -8.08L571.68 41.92L528.38 66.92L485.08 41.92L485.08 -8.08zM528.38 116.92L571.68 141.92L571.68 191.92L528.38 216.92L485.08 191.92L485.08 141.92zM658.29 491.92L701.59 516.92L701.59 566.92L658.29 591.92L614.99 566.92L614.99 516.92zM788.2 -33.08L831.5 -8.08L831.5 41.92L788.2 66.92L744.89 41.92L744.89 -8.08zM874.8 116.92L918.1 141.92L918.1 191.92L874.8 216.92L831.5 191.92L831.5 141.92zM874.8 416.92L918.1 441.92L918.1 491.92L874.8 516.92L831.5 491.92L831.5 441.92zM961.41 266.92L1004.71 291.92L1004.71 341.92L961.41 366.92L918.1 341.92L918.1 291.92zM1004.71 341.92L1048.01 366.92L1048.01 416.92L1004.71 441.92L961.41 416.92L961.41 366.92zM1048.01 116.92L1091.31 141.92L1091.31 191.92L1048.01 216.92L1004.71 191.92L1004.71 141.92zM1091.31 491.92L1134.62 516.92L1134.62 566.92L1091.31 591.92L1048.01 566.92L1048.01 516.92zM1177.92 191.92L1221.22 216.92L1221.22 266.92L1177.92 291.92L1134.62 266.92L1134.62 216.92zM1221.22 -33.08L1264.52 -8.08L1264.52 41.92L1221.22 66.92L1177.92 41.92L1177.92 -8.08zM1307.83 -33.08L1351.13 -8.08L1351.13 41.92L1307.83 66.92L1264.52 41.92L1264.52 -8.08zM1307.83 266.92L1351.13 291.92L1351.13 341.92L1307.83 366.92L1264.52 341.92L1264.52 291.92zM1351.13 341.92L1394.43 366.92L1394.43 416.92L1351.13 441.92L1307.83 416.92L1307.83 366.92zM1307.83 416.92L1351.13 441.92L1351.13 491.92L1307.83 516.92L1264.52 491.92L1264.52 441.92zM1394.43 116.92L1437.73 141.92L1437.73 191.92L1394.43 216.92L1351.13 191.92L1351.13 141.92zM1437.73 191.92L1481.04 216.92L1481.04 266.92L1437.73 291.92L1394.43 266.92L1394.43 216.92z" stroke="rgba(0, 0, 0, 0)" stroke-width="2"></path></g><defs><mask id="SvgjsMask1097"><rect width="1440" height="560" fill="#ffffff"></rect></mask></defs></svg>